%TF.GenerationSoftware,KiCad,Pcbnew,6.0.2+dfsg-1*%
%TF.CreationDate,2023-05-04T17:56:36+06:00*%
%TF.ProjectId,mega_model,6d656761-5f6d-46f6-9465-6c2e6b696361,rev?*%
%TF.SameCoordinates,Original*%
%TF.FileFunction,Copper,L2,Bot*%
%TF.FilePolarity,Positive*%
%FSLAX46Y46*%
G04 Gerber Fmt 4.6, Leading zero omitted, Abs format (unit mm)*
G04 Created by KiCad (PCBNEW 6.0.2+dfsg-1) date 2023-05-04 17:56:36*
%MOMM*%
%LPD*%
G01*
G04 APERTURE LIST*
G04 Aperture macros list*
%AMRoundRect*
0 Rectangle with rounded corners*
0 $1 Rounding radius*
0 $2 $3 $4 $5 $6 $7 $8 $9 X,Y pos of 4 corners*
0 Add a 4 corners polygon primitive as box body*
4,1,4,$2,$3,$4,$5,$6,$7,$8,$9,$2,$3,0*
0 Add four circle primitives for the rounded corners*
1,1,$1+$1,$2,$3*
1,1,$1+$1,$4,$5*
1,1,$1+$1,$6,$7*
1,1,$1+$1,$8,$9*
0 Add four rect primitives between the rounded corners*
20,1,$1+$1,$2,$3,$4,$5,0*
20,1,$1+$1,$4,$5,$6,$7,0*
20,1,$1+$1,$6,$7,$8,$9,0*
20,1,$1+$1,$8,$9,$2,$3,0*%
G04 Aperture macros list end*
%TA.AperFunction,Profile*%
%ADD10C,0.150000*%
%TD*%
%TA.AperFunction,ComponentPad*%
%ADD11RoundRect,0.250002X-1.699998X-1.699998X1.699998X-1.699998X1.699998X1.699998X-1.699998X1.699998X0*%
%TD*%
%TA.AperFunction,ComponentPad*%
%ADD12R,1.727200X1.727200*%
%TD*%
%TA.AperFunction,ComponentPad*%
%ADD13O,1.727200X1.727200*%
%TD*%
%TA.AperFunction,ComponentPad*%
%ADD14O,1.727200X2.032000*%
%TD*%
%TA.AperFunction,ComponentPad*%
%ADD15R,1.727200X2.032000*%
%TD*%
%TA.AperFunction,ComponentPad*%
%ADD16C,4.064000*%
%TD*%
%TA.AperFunction,ComponentPad*%
%ADD17O,1.600000X1.600000*%
%TD*%
%TA.AperFunction,ComponentPad*%
%ADD18C,1.600000*%
%TD*%
%TA.AperFunction,ComponentPad*%
%ADD19R,1.600000X1.600000*%
%TD*%
%TA.AperFunction,ComponentPad*%
%ADD20C,3.000000*%
%TD*%
%TA.AperFunction,ComponentPad*%
%ADD21RoundRect,0.875000X0.875000X0.875000X-0.875000X0.875000X-0.875000X-0.875000X0.875000X-0.875000X0*%
%TD*%
%TA.AperFunction,ComponentPad*%
%ADD22R,3.000000X3.500000*%
%TD*%
%TA.AperFunction,ComponentPad*%
%ADD23O,1.980000X3.960000*%
%TD*%
%TA.AperFunction,ComponentPad*%
%ADD24R,1.980000X3.960000*%
%TD*%
%TA.AperFunction,ComponentPad*%
%ADD25RoundRect,0.250002X1.699998X1.699998X-1.699998X1.699998X-1.699998X-1.699998X1.699998X-1.699998X0*%
%TD*%
%TA.AperFunction,ComponentPad*%
%ADD26C,3.900000*%
%TD*%
%TA.AperFunction,ComponentPad*%
%ADD27R,1.700000X1.700000*%
%TD*%
%TA.AperFunction,ComponentPad*%
%ADD28O,1.700000X1.700000*%
%TD*%
%TA.AperFunction,ComponentPad*%
%ADD29RoundRect,1.500000X1.500000X-1.500000X1.500000X1.500000X-1.500000X1.500000X-1.500000X-1.500000X0*%
%TD*%
%TA.AperFunction,ComponentPad*%
%ADD30C,6.000000*%
%TD*%
%TA.AperFunction,ComponentPad*%
%ADD31R,3.960000X1.980000*%
%TD*%
%TA.AperFunction,ComponentPad*%
%ADD32O,3.960000X1.980000*%
%TD*%
%TA.AperFunction,ViaPad*%
%ADD33C,0.600000*%
%TD*%
%TA.AperFunction,Conductor*%
%ADD34C,1.000000*%
%TD*%
%TA.AperFunction,Conductor*%
%ADD35C,0.250000*%
%TD*%
G04 APERTURE END LIST*
D10*
X53340000Y-117475000D02*
X53340000Y-64135000D01*
X195580000Y-64135000D02*
X195580000Y-117475000D01*
X195580000Y-117475000D02*
X53340000Y-117475000D01*
X53340000Y-64135000D02*
X195580000Y-64135000D01*
D11*
%TO.P,J19,1,Pin_1*%
%TO.N,+12VA*%
X124460000Y-106680000D03*
%TD*%
%TO.P,J20,1,Pin_1*%
%TO.N,GND*%
X124460000Y-86360000D03*
%TD*%
%TO.P,J22,1,Pin_1*%
%TO.N,GND*%
X73660000Y-86360000D03*
%TD*%
%TO.P,J23,1,Pin_1*%
%TO.N,+5VA*%
X73660000Y-106680000D03*
%TD*%
D12*
%TO.P,P1,1,Pin_1*%
%TO.N,GND*%
X147320000Y-109855000D03*
%TO.P,P1,2,Pin_2*%
X149860000Y-109855000D03*
D13*
%TO.P,P1,3,Pin_3*%
%TO.N,/52(SCK)*%
X147320000Y-107315000D03*
%TO.P,P1,4,Pin_4*%
%TO.N,/53(SS)*%
X149860000Y-107315000D03*
%TO.P,P1,5,Pin_5*%
%TO.N,/50(MISO)*%
X147320000Y-104775000D03*
%TO.P,P1,6,Pin_6*%
%TO.N,/51(MOSI)*%
X149860000Y-104775000D03*
%TO.P,P1,7,Pin_7*%
%TO.N,/48*%
X147320000Y-102235000D03*
%TO.P,P1,8,Pin_8*%
%TO.N,/49*%
X149860000Y-102235000D03*
%TO.P,P1,9,Pin_9*%
%TO.N,/46*%
X147320000Y-99695000D03*
%TO.P,P1,10,Pin_10*%
%TO.N,/47*%
X149860000Y-99695000D03*
%TO.P,P1,11,Pin_11*%
%TO.N,/44*%
X147320000Y-97155000D03*
%TO.P,P1,12,Pin_12*%
%TO.N,/45*%
X149860000Y-97155000D03*
%TO.P,P1,13,Pin_13*%
%TO.N,/42*%
X147320000Y-94615000D03*
%TO.P,P1,14,Pin_14*%
%TO.N,/43*%
X149860000Y-94615000D03*
%TO.P,P1,15,Pin_15*%
%TO.N,/40*%
X147320000Y-92075000D03*
%TO.P,P1,16,Pin_16*%
%TO.N,/41*%
X149860000Y-92075000D03*
%TO.P,P1,17,Pin_17*%
%TO.N,/38*%
X147320000Y-89535000D03*
%TO.P,P1,18,Pin_18*%
%TO.N,/39*%
X149860000Y-89535000D03*
%TO.P,P1,19,Pin_19*%
%TO.N,/36*%
X147320000Y-86995000D03*
%TO.P,P1,20,Pin_20*%
%TO.N,/37*%
X149860000Y-86995000D03*
%TO.P,P1,21,Pin_21*%
%TO.N,/34*%
X147320000Y-84455000D03*
%TO.P,P1,22,Pin_22*%
%TO.N,/35*%
X149860000Y-84455000D03*
%TO.P,P1,23,Pin_23*%
%TO.N,/32*%
X147320000Y-81915000D03*
%TO.P,P1,24,Pin_24*%
%TO.N,/33*%
X149860000Y-81915000D03*
%TO.P,P1,25,Pin_25*%
%TO.N,/30*%
X147320000Y-79375000D03*
%TO.P,P1,26,Pin_26*%
%TO.N,/31*%
X149860000Y-79375000D03*
%TO.P,P1,27,Pin_27*%
%TO.N,/28*%
X147320000Y-76835000D03*
%TO.P,P1,28,Pin_28*%
%TO.N,/29*%
X149860000Y-76835000D03*
%TO.P,P1,29,Pin_29*%
%TO.N,/26*%
X147320000Y-74295000D03*
%TO.P,P1,30,Pin_30*%
%TO.N,/27*%
X149860000Y-74295000D03*
%TO.P,P1,31,Pin_31*%
%TO.N,/24*%
X147320000Y-71755000D03*
%TO.P,P1,32,Pin_32*%
%TO.N,/25*%
X149860000Y-71755000D03*
%TO.P,P1,33,Pin_33*%
%TO.N,/22*%
X147320000Y-69215000D03*
%TO.P,P1,34,Pin_34*%
%TO.N,/23*%
X149860000Y-69215000D03*
%TO.P,P1,35,Pin_35*%
%TO.N,+5V*%
X147320000Y-66675000D03*
%TO.P,P1,36,Pin_36*%
X149860000Y-66675000D03*
%TD*%
D14*
%TO.P,P2,1,Pin_1*%
%TO.N,unconnected-(P2-Pad1)*%
X81280000Y-114935000D03*
%TO.P,P2,2,Pin_2*%
%TO.N,/IOREF*%
X83820000Y-114935000D03*
%TO.P,P2,3,Pin_3*%
%TO.N,/Reset*%
X86360000Y-114935000D03*
%TO.P,P2,4,Pin_4*%
%TO.N,+3V3*%
X88900000Y-114935000D03*
%TO.P,P2,5,Pin_5*%
%TO.N,+5V*%
X91440000Y-114935000D03*
D15*
%TO.P,P2,6,Pin_6*%
%TO.N,GND*%
X93980000Y-114935000D03*
%TO.P,P2,7,Pin_7*%
X96520000Y-114935000D03*
D14*
%TO.P,P2,8,Pin_8*%
%TO.N,/Vin*%
X99060000Y-114935000D03*
%TD*%
%TO.P,P3,1,Pin_1*%
%TO.N,/A0*%
X104140000Y-114935000D03*
%TO.P,P3,2,Pin_2*%
%TO.N,/A1*%
X106680000Y-114935000D03*
%TO.P,P3,3,Pin_3*%
%TO.N,/A2*%
X109220000Y-114935000D03*
%TO.P,P3,4,Pin_4*%
%TO.N,/A3*%
X111760000Y-114935000D03*
%TO.P,P3,5,Pin_5*%
%TO.N,/A4*%
X114300000Y-114935000D03*
%TO.P,P3,6,Pin_6*%
%TO.N,/A5*%
X116840000Y-114935000D03*
%TO.P,P3,7,Pin_7*%
%TO.N,/A6*%
X119380000Y-114935000D03*
%TO.P,P3,8,Pin_8*%
%TO.N,/A7*%
X121920000Y-114935000D03*
%TD*%
%TO.P,P4,1,Pin_1*%
%TO.N,/A8*%
X127000000Y-114935000D03*
%TO.P,P4,2,Pin_2*%
%TO.N,/A9*%
X129540000Y-114935000D03*
%TO.P,P4,3,Pin_3*%
%TO.N,/A10*%
X132080000Y-114935000D03*
%TO.P,P4,4,Pin_4*%
%TO.N,/A11*%
X134620000Y-114935000D03*
%TO.P,P4,5,Pin_5*%
%TO.N,/A12*%
X137160000Y-114935000D03*
%TO.P,P4,6,Pin_6*%
%TO.N,/A13*%
X139700000Y-114935000D03*
%TO.P,P4,7,Pin_7*%
%TO.N,/A14*%
X142240000Y-114935000D03*
%TO.P,P4,8,Pin_8*%
%TO.N,/A15*%
X144780000Y-114935000D03*
%TD*%
%TO.P,P5,1,Pin_1*%
%TO.N,/21(SCL)*%
X72136000Y-66675000D03*
%TO.P,P5,2,Pin_2*%
%TO.N,/20(SDA)*%
X74676000Y-66675000D03*
%TO.P,P5,3,Pin_3*%
%TO.N,/AREF*%
X77216000Y-66675000D03*
D15*
%TO.P,P5,4,Pin_4*%
%TO.N,GND*%
X79756000Y-66675000D03*
D14*
%TO.P,P5,5,Pin_5*%
%TO.N,/13(\u002A\u002A)*%
X82296000Y-66675000D03*
%TO.P,P5,6,Pin_6*%
%TO.N,/12(\u002A\u002A)*%
X84836000Y-66675000D03*
%TO.P,P5,7,Pin_7*%
%TO.N,/11(\u002A\u002A)*%
X87376000Y-66675000D03*
%TO.P,P5,8,Pin_8*%
%TO.N,/10(\u002A\u002A)*%
X89916000Y-66675000D03*
%TO.P,P5,9,Pin_9*%
%TO.N,/9(\u002A\u002A)*%
X92456000Y-66675000D03*
%TO.P,P5,10,Pin_10*%
%TO.N,/8(\u002A\u002A)*%
X94996000Y-66675000D03*
%TD*%
%TO.P,P6,1,Pin_1*%
%TO.N,/7(\u002A\u002A)*%
X99060000Y-66675000D03*
%TO.P,P6,2,Pin_2*%
%TO.N,/6(\u002A\u002A)*%
X101600000Y-66675000D03*
%TO.P,P6,3,Pin_3*%
%TO.N,/5(\u002A\u002A)*%
X104140000Y-66675000D03*
%TO.P,P6,4,Pin_4*%
%TO.N,/4(\u002A\u002A)*%
X106680000Y-66675000D03*
%TO.P,P6,5,Pin_5*%
%TO.N,/3(\u002A\u002A)*%
X109220000Y-66675000D03*
%TO.P,P6,6,Pin_6*%
%TO.N,/2(\u002A\u002A)*%
X111760000Y-66675000D03*
%TO.P,P6,7,Pin_7*%
%TO.N,/1(Tx0)*%
X114300000Y-66675000D03*
%TO.P,P6,8,Pin_8*%
%TO.N,/0(Rx0)*%
X116840000Y-66675000D03*
%TD*%
%TO.P,P7,1,Pin_1*%
%TO.N,/14(Tx3)*%
X121920000Y-66675000D03*
%TO.P,P7,2,Pin_2*%
%TO.N,/15(Rx3)*%
X124460000Y-66675000D03*
%TO.P,P7,3,Pin_3*%
%TO.N,/16(Tx2)*%
X127000000Y-66675000D03*
%TO.P,P7,4,Pin_4*%
%TO.N,/17(Rx2)*%
X129540000Y-66675000D03*
%TO.P,P7,5,Pin_5*%
%TO.N,/18(Tx1)*%
X132080000Y-66675000D03*
%TO.P,P7,6,Pin_6*%
%TO.N,/19(Rx1)*%
X134620000Y-66675000D03*
%TO.P,P7,7,Pin_7*%
%TO.N,/20(SDA)*%
X137160000Y-66675000D03*
%TO.P,P7,8,Pin_8*%
%TO.N,/21(SCL)*%
X139700000Y-66675000D03*
%TD*%
D16*
%TO.P,P8,1,Pin_1*%
%TO.N,unconnected-(P8-Pad1)*%
X67310000Y-114935000D03*
%TD*%
D17*
%TO.P,J17,1,VBUS*%
%TO.N,+5VA*%
X64410000Y-93020000D03*
D18*
%TO.P,J17,2,D-*%
%TO.N,unconnected-(J17-Pad2)*%
X64410000Y-95520000D03*
%TO.P,J17,3,D+*%
%TO.N,unconnected-(J17-Pad3)*%
X64410000Y-97520000D03*
D19*
%TO.P,J17,4,GND*%
%TO.N,GND*%
X64410000Y-100020000D03*
D20*
%TO.P,J17,5,Shield*%
%TO.N,unconnected-(J17-Pad5)*%
X61700000Y-103090000D03*
X61700000Y-89950000D03*
%TD*%
D21*
%TO.P,J18,3*%
%TO.N,N/C*%
X182420000Y-90237500D03*
D22*
%TO.P,J18,2*%
%TO.N,GND*%
X185420000Y-94937500D03*
D21*
%TO.P,J18,1*%
%TO.N,+12V*%
X179420000Y-94937500D03*
%TD*%
D23*
%TO.P,J11,1,Pin_1*%
%TO.N,+12VA*%
X175260000Y-111760000D03*
D24*
%TO.P,J11,2,Pin_2*%
%TO.N,GND*%
X170260000Y-111760000D03*
%TD*%
D25*
%TO.P,SW1,1,A*%
%TO.N,unconnected-(SW1-Pad1)*%
X172900000Y-86360000D03*
D26*
%TO.P,SW1,2,B*%
%TO.N,+12V*%
X165100000Y-86360000D03*
%TO.P,SW1,3,C*%
%TO.N,+12VA*%
X157300000Y-86360000D03*
%TD*%
D27*
%TO.P,J9,1,Pin_1*%
%TO.N,GND*%
X87630000Y-81280000D03*
D28*
%TO.P,J9,2,Pin_2*%
%TO.N,+5VA*%
X90170000Y-81280000D03*
%TO.P,J9,3,Pin_3*%
X92710000Y-81280000D03*
%TO.P,J9,4,Pin_4*%
X95250000Y-81280000D03*
%TO.P,J9,5,Pin_5*%
%TO.N,/47*%
X97790000Y-81280000D03*
%TO.P,J9,6,Pin_6*%
%TO.N,/46*%
X100330000Y-81280000D03*
%TD*%
D27*
%TO.P,J10,1,Pin_1*%
%TO.N,GND*%
X68580000Y-81280000D03*
D28*
%TO.P,J10,2,Pin_2*%
%TO.N,+5VA*%
X71120000Y-81280000D03*
%TO.P,J10,3,Pin_3*%
X73660000Y-81280000D03*
%TO.P,J10,4,Pin_4*%
X76200000Y-81280000D03*
%TO.P,J10,5,Pin_5*%
%TO.N,/23*%
X78740000Y-81280000D03*
%TO.P,J10,6,Pin_6*%
%TO.N,/25*%
X81280000Y-81280000D03*
%TD*%
D27*
%TO.P,J2,1,Pin_1*%
%TO.N,GND*%
X140960000Y-88925000D03*
D28*
%TO.P,J2,2,Pin_2*%
%TO.N,/28*%
X138420000Y-88925000D03*
%TO.P,J2,3,Pin_3*%
%TO.N,/26*%
X135880000Y-88925000D03*
%TO.P,J2,4,Pin_4*%
%TO.N,+5V*%
X133340000Y-88925000D03*
%TD*%
%TO.P,J5,1,Pin_1*%
%TO.N,+5V*%
X133360000Y-73635000D03*
%TO.P,J5,2,Pin_2*%
%TO.N,/20(SDA)*%
X135900000Y-73635000D03*
%TO.P,J5,3,Pin_3*%
%TO.N,/21(SCL)*%
X138440000Y-73635000D03*
D27*
%TO.P,J5,4,Pin_4*%
%TO.N,GND*%
X140980000Y-73635000D03*
%TD*%
D23*
%TO.P,J15,1,Pin_1*%
%TO.N,+12VA*%
X162560000Y-111760000D03*
D24*
%TO.P,J15,2,Pin_2*%
%TO.N,GND*%
X157560000Y-111760000D03*
%TD*%
D27*
%TO.P,J1,1,Pin_1*%
%TO.N,GND*%
X140960000Y-81305000D03*
D28*
%TO.P,J1,2,Pin_2*%
%TO.N,/24*%
X138420000Y-81305000D03*
%TO.P,J1,3,Pin_3*%
%TO.N,/22*%
X135880000Y-81305000D03*
%TO.P,J1,4,Pin_4*%
%TO.N,+5V*%
X133340000Y-81305000D03*
%TD*%
D27*
%TO.P,J7,1,Pin_1*%
%TO.N,GND*%
X87630000Y-76200000D03*
D28*
%TO.P,J7,2,Pin_2*%
%TO.N,+5VA*%
X90170000Y-76200000D03*
%TO.P,J7,3,Pin_3*%
X92710000Y-76200000D03*
%TO.P,J7,4,Pin_4*%
X95250000Y-76200000D03*
%TO.P,J7,5,Pin_5*%
%TO.N,/10(\u002A\u002A)*%
X97790000Y-76200000D03*
%TO.P,J7,6,Pin_6*%
%TO.N,/9(\u002A\u002A)*%
X100330000Y-76200000D03*
%TD*%
D23*
%TO.P,J12,1,Pin_1*%
%TO.N,+12VA*%
X187960000Y-111760000D03*
D24*
%TO.P,J12,2,Pin_2*%
%TO.N,GND*%
X182960000Y-111760000D03*
%TD*%
D27*
%TO.P,J3,1,Pin_1*%
%TO.N,GND*%
X140960000Y-96545000D03*
D28*
%TO.P,J3,2,Pin_2*%
%TO.N,/32*%
X138420000Y-96545000D03*
%TO.P,J3,3,Pin_3*%
%TO.N,/30*%
X135880000Y-96545000D03*
%TO.P,J3,4,Pin_4*%
%TO.N,+5V*%
X133340000Y-96545000D03*
%TD*%
D29*
%TO.P,J16,1,Pin_1*%
%TO.N,GND*%
X187960000Y-79800000D03*
D30*
%TO.P,J16,2,Pin_2*%
%TO.N,+12V*%
X187960000Y-72600000D03*
%TD*%
D31*
%TO.P,J21,1,Pin_1*%
%TO.N,GND*%
X116840000Y-73660000D03*
D32*
%TO.P,J21,2,Pin_2*%
%TO.N,+5VA*%
X116840000Y-78660000D03*
%TD*%
D27*
%TO.P,J4,1,Pin_1*%
%TO.N,GND*%
X140960000Y-104165000D03*
D28*
%TO.P,J4,2,Pin_2*%
%TO.N,/36*%
X138420000Y-104165000D03*
%TO.P,J4,3,Pin_3*%
%TO.N,/34*%
X135880000Y-104165000D03*
%TO.P,J4,4,Pin_4*%
%TO.N,+5V*%
X133340000Y-104165000D03*
%TD*%
D23*
%TO.P,J14,1,Pin_1*%
%TO.N,+12VA*%
X170180000Y-71120000D03*
D24*
%TO.P,J14,2,Pin_2*%
%TO.N,GND*%
X175180000Y-71120000D03*
%TD*%
D27*
%TO.P,J6,1,Pin_1*%
%TO.N,GND*%
X68580000Y-71120000D03*
D28*
%TO.P,J6,2,Pin_2*%
%TO.N,+5VA*%
X71120000Y-71120000D03*
%TO.P,J6,3,Pin_3*%
X73660000Y-71120000D03*
%TO.P,J6,4,Pin_4*%
X76200000Y-71120000D03*
%TO.P,J6,5,Pin_5*%
%TO.N,/12(\u002A\u002A)*%
X78740000Y-71120000D03*
%TO.P,J6,6,Pin_6*%
%TO.N,/11(\u002A\u002A)*%
X81280000Y-71120000D03*
%TD*%
D23*
%TO.P,J13,1,Pin_1*%
%TO.N,+12VA*%
X157480000Y-71120000D03*
D24*
%TO.P,J13,2,Pin_2*%
%TO.N,GND*%
X162480000Y-71120000D03*
%TD*%
D27*
%TO.P,J8,1,Pin_1*%
%TO.N,GND*%
X68580000Y-76200000D03*
D28*
%TO.P,J8,2,Pin_2*%
%TO.N,+5VA*%
X71120000Y-76200000D03*
%TO.P,J8,3,Pin_3*%
X73660000Y-76200000D03*
%TO.P,J8,4,Pin_4*%
X76200000Y-76200000D03*
%TO.P,J8,5,Pin_5*%
%TO.N,/7(\u002A\u002A)*%
X78740000Y-76200000D03*
%TO.P,J8,6,Pin_6*%
%TO.N,/6(\u002A\u002A)*%
X81280000Y-76200000D03*
%TD*%
D33*
%TO.N,GND*%
X127000000Y-78740000D03*
X142240000Y-106680000D03*
X109220000Y-88900000D03*
X71120000Y-78740000D03*
X78740000Y-78740000D03*
X71120000Y-96520000D03*
X68580000Y-83820000D03*
X78740000Y-111760000D03*
%TO.N,/46*%
X119380000Y-101600000D03*
%TO.N,/47*%
X116840000Y-104140000D03*
%TO.N,/36*%
X139833955Y-100975500D03*
%TO.N,/34*%
X139700000Y-99060000D03*
%TO.N,/32*%
X139700000Y-93980000D03*
%TO.N,/30*%
X139700000Y-91440000D03*
%TO.N,/28*%
X139700000Y-86360000D03*
%TO.N,/26*%
X139700000Y-83820000D03*
%TO.N,/24*%
X139700000Y-78740000D03*
%TO.N,/25*%
X93980000Y-83820000D03*
%TO.N,/22*%
X139700000Y-76200000D03*
%TO.N,/23*%
X93980000Y-86360000D03*
%TO.N,+5V*%
X116840000Y-106680000D03*
%TO.N,+5VA*%
X73660000Y-96520000D03*
X114300000Y-88900000D03*
%TO.N,/12(\u002A\u002A)*%
X79930497Y-71120000D03*
%TO.N,/11(\u002A\u002A)*%
X83690661Y-70990661D03*
%TO.N,/10(\u002A\u002A)*%
X93980000Y-70495500D03*
X91440000Y-67955500D03*
X98980497Y-76200000D03*
%TO.N,/9(\u002A\u002A)*%
X96520000Y-69654020D03*
X101600000Y-76200000D03*
X93980000Y-67955500D03*
%TO.N,/7(\u002A\u002A)*%
X81280000Y-74284500D03*
%TO.N,/6(\u002A\u002A)*%
X83820000Y-73660000D03*
%TO.N,/20(SDA)*%
X137232557Y-67955500D03*
%TO.N,/21(SCL)*%
X139700000Y-67955500D03*
%TD*%
D34*
%TO.N,GND*%
X121920000Y-73660000D02*
X127000000Y-78740000D01*
X116840000Y-73660000D02*
X121920000Y-73660000D01*
X175180000Y-66120000D02*
X175180000Y-71120000D01*
X64410000Y-100020000D02*
X67620000Y-100020000D01*
X192840480Y-68380480D02*
X192840480Y-83620480D01*
X109220000Y-81280000D02*
X116840000Y-73660000D01*
D35*
X182880000Y-106680000D02*
X182960000Y-106600000D01*
D34*
X157560000Y-104220000D02*
X157560000Y-111760000D01*
D35*
X175260000Y-66040000D02*
X175180000Y-66120000D01*
X140960000Y-73655000D02*
X140980000Y-73635000D01*
D34*
X67620000Y-100020000D02*
X71120000Y-96520000D01*
D35*
X185420000Y-82340000D02*
X187960000Y-79800000D01*
D34*
X152400000Y-99060000D02*
X157560000Y-104220000D01*
D35*
X187960000Y-79800000D02*
X189020000Y-79800000D01*
X68580000Y-81280000D02*
X68580000Y-83820000D01*
X78740000Y-78740000D02*
X87630000Y-78740000D01*
D34*
X140960000Y-105400000D02*
X142240000Y-106680000D01*
X175260000Y-66040000D02*
X190500000Y-66040000D01*
X192840480Y-87517020D02*
X185420000Y-94937500D01*
D35*
X87630000Y-78740000D02*
X87630000Y-81280000D01*
X68580000Y-81280000D02*
X68580000Y-73660000D01*
D34*
X140960000Y-104165000D02*
X140960000Y-105400000D01*
X189020000Y-79800000D02*
X192840480Y-83620480D01*
X172720000Y-106680000D02*
X182880000Y-106680000D01*
D35*
X68580000Y-73660000D02*
X68580000Y-71120000D01*
D34*
X170260000Y-111760000D02*
X170260000Y-109300000D01*
X162560000Y-66040000D02*
X175260000Y-66040000D01*
X182960000Y-97397500D02*
X182960000Y-106600000D01*
D35*
X162560000Y-66040000D02*
X162480000Y-66120000D01*
D34*
X190500000Y-66040000D02*
X192840480Y-68380480D01*
D35*
X140960000Y-104165000D02*
X140960000Y-73655000D01*
D34*
X192840480Y-83620480D02*
X192840480Y-87517020D01*
D35*
X170260000Y-109300000D02*
X170180000Y-109220000D01*
D34*
X157480000Y-66040000D02*
X152400000Y-71120000D01*
D35*
X87630000Y-78740000D02*
X87630000Y-76200000D01*
X78740000Y-111760000D02*
X71120000Y-111760000D01*
D34*
X182960000Y-106600000D02*
X182960000Y-111760000D01*
D35*
X64410000Y-105050000D02*
X64410000Y-100020000D01*
D34*
X162560000Y-66040000D02*
X157480000Y-66040000D01*
X147320000Y-111760000D02*
X157560000Y-111760000D01*
D35*
X68580000Y-81280000D02*
X71120000Y-78740000D01*
X71120000Y-111760000D02*
X64410000Y-105050000D01*
D34*
X185420000Y-94937500D02*
X182960000Y-97397500D01*
X162480000Y-66120000D02*
X162480000Y-71120000D01*
X109220000Y-88900000D02*
X109220000Y-81280000D01*
X152400000Y-71120000D02*
X152400000Y-99060000D01*
X142240000Y-106680000D02*
X147320000Y-111760000D01*
X170180000Y-109220000D02*
X172720000Y-106680000D01*
D35*
%TO.N,/46*%
X101564520Y-83784520D02*
X119380000Y-101600000D01*
X101564520Y-82514520D02*
X101564520Y-83784520D01*
X100330000Y-81280000D02*
X101564520Y-82514520D01*
%TO.N,/47*%
X116840000Y-104140000D02*
X116840000Y-103272492D01*
X97790000Y-84222492D02*
X97790000Y-81280000D01*
X116840000Y-103272492D02*
X97790000Y-84222492D01*
%TO.N,/36*%
X139833955Y-102751045D02*
X139833955Y-100975500D01*
X138420000Y-104165000D02*
X139833955Y-102751045D01*
%TO.N,/34*%
X135880000Y-102880000D02*
X135880000Y-104165000D01*
X139700000Y-99060000D02*
X135880000Y-102880000D01*
%TO.N,/32*%
X138420000Y-96545000D02*
X139700000Y-95265000D01*
X139700000Y-95265000D02*
X139700000Y-93980000D01*
%TO.N,/30*%
X139700000Y-91440000D02*
X135880000Y-95260000D01*
X135880000Y-95260000D02*
X135880000Y-96545000D01*
%TO.N,/28*%
X138420000Y-88925000D02*
X138420000Y-87640000D01*
X138420000Y-87640000D02*
X139700000Y-86360000D01*
%TO.N,/26*%
X135880000Y-87640000D02*
X135880000Y-88925000D01*
X139700000Y-83820000D02*
X135880000Y-87640000D01*
%TO.N,/24*%
X139700000Y-80025000D02*
X139700000Y-78740000D01*
X138420000Y-81305000D02*
X139700000Y-80025000D01*
%TO.N,/25*%
X81280000Y-81280000D02*
X83820000Y-83820000D01*
X83820000Y-83820000D02*
X93980000Y-83820000D01*
%TO.N,/22*%
X135880000Y-80020000D02*
X135880000Y-81305000D01*
X139700000Y-76200000D02*
X135880000Y-80020000D01*
%TO.N,/23*%
X83820000Y-86360000D02*
X78740000Y-81280000D01*
X93980000Y-86360000D02*
X83820000Y-86360000D01*
%TO.N,+5V*%
X133340000Y-104165000D02*
X119355000Y-104165000D01*
X133340000Y-81305000D02*
X133340000Y-73655000D01*
X133340000Y-73655000D02*
X133360000Y-73635000D01*
X119355000Y-104165000D02*
X116840000Y-106680000D01*
X133340000Y-104165000D02*
X133340000Y-81305000D01*
%TO.N,+5VA*%
X64410000Y-93020000D02*
X64410000Y-90530000D01*
X71120000Y-76200000D02*
X76200000Y-76200000D01*
X87371458Y-83370480D02*
X93159520Y-83370480D01*
X71120000Y-83820000D02*
X71120000Y-81280000D01*
D34*
X64410000Y-93020000D02*
X70160000Y-93020000D01*
D35*
X73660000Y-78740000D02*
X73660000Y-71120000D01*
X93159520Y-83370480D02*
X95250000Y-81280000D01*
X73660000Y-81280000D02*
X73660000Y-78740000D01*
X64410000Y-90530000D02*
X66040000Y-88900000D01*
D34*
X114300000Y-88900000D02*
X114300000Y-83820000D01*
D35*
X71120000Y-71120000D02*
X76200000Y-71120000D01*
X83365489Y-79364511D02*
X87371458Y-83370480D01*
X74284511Y-79364511D02*
X83365489Y-79364511D01*
X73660000Y-78740000D02*
X74284511Y-79364511D01*
D34*
X116840000Y-81280000D02*
X116840000Y-78660000D01*
D35*
X71120000Y-81280000D02*
X76200000Y-81280000D01*
X90170000Y-76200000D02*
X95250000Y-76200000D01*
X66040000Y-88900000D02*
X71120000Y-83820000D01*
X95250000Y-76200000D02*
X95250000Y-81280000D01*
D34*
X114300000Y-83820000D02*
X116840000Y-81280000D01*
D35*
X90170000Y-81280000D02*
X95250000Y-81280000D01*
D34*
X70160000Y-93020000D02*
X73660000Y-96520000D01*
D35*
%TO.N,/12(\u002A\u002A)*%
X79930497Y-71120000D02*
X78740000Y-71120000D01*
%TO.N,/11(\u002A\u002A)*%
X83561322Y-71120000D02*
X81280000Y-71120000D01*
X83690661Y-70990661D02*
X83561322Y-71120000D01*
%TO.N,/10(\u002A\u002A)*%
X93980000Y-70495500D02*
X91440000Y-67955500D01*
X98980497Y-76200000D02*
X97790000Y-76200000D01*
%TO.N,/9(\u002A\u002A)*%
X101600000Y-76200000D02*
X100330000Y-76200000D01*
X95678520Y-69654020D02*
X96520000Y-69654020D01*
X93980000Y-67955500D02*
X95678520Y-69654020D01*
%TO.N,/7(\u002A\u002A)*%
X78740000Y-76200000D02*
X80655500Y-74284500D01*
X80655500Y-74284500D02*
X81280000Y-74284500D01*
%TO.N,/6(\u002A\u002A)*%
X81280000Y-76200000D02*
X83820000Y-73660000D01*
%TO.N,/20(SDA)*%
X135900000Y-69288057D02*
X137232557Y-67955500D01*
X135900000Y-73635000D02*
X135900000Y-69288057D01*
%TO.N,/21(SCL)*%
X139700000Y-67955500D02*
X138440000Y-69215500D01*
X138440000Y-69215500D02*
X138440000Y-73635000D01*
D34*
%TO.N,+12VA*%
X138357655Y-106680000D02*
X143437655Y-111760000D01*
X143437655Y-111760000D02*
X144780000Y-111760000D01*
X157480000Y-71120000D02*
X157480000Y-76200000D01*
X175260000Y-111760000D02*
X175260000Y-116840000D01*
X162560000Y-91620000D02*
X162560000Y-111760000D01*
X149860000Y-116840000D02*
X162560000Y-116840000D01*
X162560000Y-116840000D02*
X175260000Y-116840000D01*
X162560000Y-111760000D02*
X162560000Y-116840000D01*
X144780000Y-111760000D02*
X149860000Y-116840000D01*
D35*
X157480000Y-86180000D02*
X157300000Y-86360000D01*
D34*
X124460000Y-106680000D02*
X138357655Y-106680000D01*
X175260000Y-116840000D02*
X182880000Y-116840000D01*
X157480000Y-76200000D02*
X165100000Y-76200000D01*
X165100000Y-76200000D02*
X170180000Y-71120000D01*
X157300000Y-86360000D02*
X162560000Y-91620000D01*
X157480000Y-76200000D02*
X157480000Y-86180000D01*
X182880000Y-116840000D02*
X187960000Y-111760000D01*
%TO.N,+12V*%
X173677500Y-94937500D02*
X179420000Y-94937500D01*
X187960000Y-72600000D02*
X179420000Y-81140000D01*
X179420000Y-81140000D02*
X179420000Y-94937500D01*
X165100000Y-86360000D02*
X173677500Y-94937500D01*
%TD*%
M02*
