M48
; DRILL file {KiCad 6.0.2+dfsg-1} date বৃহস্পতিবার 04 মে 2023 05:56:34 অপরাহ্ণ
; FORMAT={-:-/ absolute / inch / decimal}
; #@! TF.CreationDate,2023-05-04T17:56:34+06:00
; #@! TF.GenerationSoftware,Kicad,Pcbnew,6.0.2+dfsg-1
; #@! TF.FileFunction,Plated,1,2,PTH
FMAT,2
INCH
; #@! TA.AperFunction,Plated,PTH,ViaDrill
T1C0.0157
; #@! TA.AperFunction,Plated,PTH,ComponentDrill
T2C0.0362
; #@! TA.AperFunction,Plated,PTH,ComponentDrill
T3C0.0394
; #@! TA.AperFunction,Plated,PTH,ComponentDrill
T4C0.0400
; #@! TA.AperFunction,Plated,PTH,ComponentDrill
T5C0.0520
; #@! TA.AperFunction,Plated,PTH,ComponentDrill
T6C0.0906
; #@! TA.AperFunction,Plated,PTH,ComponentDrill
T7C0.0984
; #@! TA.AperFunction,Plated,PTH,ComponentDrill
T8C0.1200
; #@! TA.AperFunction,Plated,PTH,ComponentDrill
T9C0.1772
%
G90
G05
T1
X2.7Y-3.3
X2.8Y-3.1
X2.8Y-3.8
X2.9Y-3.8
X3.1Y-3.1
X3.1Y-4.4
X3.1469Y-2.8
X3.2Y-2.9246
X3.2949Y-2.7949
X3.3Y-2.9
X3.6Y-2.6754
X3.7Y-2.6754
X3.7Y-2.7754
X3.7Y-3.3
X3.7Y-3.4
X3.8Y-2.7423
X3.8969Y-3.0
X4.0Y-3.0
X4.3Y-3.5
X4.5Y-3.5
X4.6Y-4.1
X4.6Y-4.2
X4.7Y-4.0
X5.0Y-3.1
X5.4029Y-2.6754
X5.5Y-2.6754
X5.5Y-3.0
X5.5Y-3.1
X5.5Y-3.3
X5.5Y-3.4
X5.5Y-3.6
X5.5Y-3.7
X5.5Y-3.9
X5.5053Y-3.9754
X5.6Y-4.2
T2
X2.5358Y-3.6622
X2.5358Y-3.7606
X2.5358Y-3.8394
X2.5358Y-3.9378
T3
X2.7Y-2.8
X2.7Y-3.0
X2.7Y-3.2
X2.8Y-2.8
X2.8Y-3.0
X2.8Y-3.2
X2.9Y-2.8
X2.9Y-3.0
X2.9Y-3.2
X3.0Y-2.8
X3.0Y-3.0
X3.0Y-3.2
X3.1Y-2.8
X3.1Y-3.0
X3.1Y-3.2
X3.2Y-2.8
X3.2Y-3.0
X3.2Y-3.2
X3.45Y-3.0
X3.45Y-3.2
X3.55Y-3.0
X3.55Y-3.2
X3.65Y-3.0
X3.65Y-3.2
X3.75Y-3.0
X3.75Y-3.2
X3.85Y-3.0
X3.85Y-3.2
X3.95Y-3.0
X3.95Y-3.2
X5.2496Y-3.201
X5.2496Y-3.501
X5.2496Y-3.801
X5.2496Y-4.101
X5.2504Y-2.899
X5.3496Y-3.201
X5.3496Y-3.501
X5.3496Y-3.801
X5.3496Y-4.101
X5.3504Y-2.899
X5.4496Y-3.201
X5.4496Y-3.501
X5.4496Y-3.801
X5.4496Y-4.101
X5.4504Y-2.899
X5.5496Y-3.201
X5.5496Y-3.501
X5.5496Y-3.801
X5.5496Y-4.101
X5.5504Y-2.899
T4
X2.84Y-2.625
X2.94Y-2.625
X3.04Y-2.625
X3.14Y-2.625
X3.2Y-4.525
X3.24Y-2.625
X3.3Y-4.525
X3.34Y-2.625
X3.4Y-4.525
X3.44Y-2.625
X3.5Y-4.525
X3.54Y-2.625
X3.6Y-4.525
X3.64Y-2.625
X3.7Y-4.525
X3.74Y-2.625
X3.8Y-4.525
X3.9Y-2.625
X3.9Y-4.525
X4.0Y-2.625
X4.1Y-2.625
X4.1Y-4.525
X4.2Y-2.625
X4.2Y-4.525
X4.3Y-2.625
X4.3Y-4.525
X4.4Y-2.625
X4.4Y-4.525
X4.5Y-2.625
X4.5Y-4.525
X4.6Y-2.625
X4.6Y-4.525
X4.7Y-4.525
X4.8Y-2.625
X4.8Y-4.525
X4.9Y-2.625
X5.0Y-2.625
X5.0Y-4.525
X5.1Y-2.625
X5.1Y-4.525
X5.2Y-2.625
X5.2Y-4.525
X5.3Y-2.625
X5.3Y-4.525
X5.4Y-2.625
X5.4Y-4.525
X5.5Y-2.625
X5.5Y-4.525
X5.6Y-4.525
X5.7Y-4.525
X5.8Y-2.625
X5.8Y-2.725
X5.8Y-2.825
X5.8Y-2.925
X5.8Y-3.025
X5.8Y-3.125
X5.8Y-3.225
X5.8Y-3.325
X5.8Y-3.425
X5.8Y-3.525
X5.8Y-3.625
X5.8Y-3.725
X5.8Y-3.825
X5.8Y-3.925
X5.8Y-4.025
X5.8Y-4.125
X5.8Y-4.225
X5.8Y-4.325
X5.9Y-2.625
X5.9Y-2.725
X5.9Y-2.825
X5.9Y-2.925
X5.9Y-3.025
X5.9Y-3.125
X5.9Y-3.225
X5.9Y-3.325
X5.9Y-3.425
X5.9Y-3.525
X5.9Y-3.625
X5.9Y-3.725
X5.9Y-3.825
X5.9Y-3.925
X5.9Y-4.025
X5.9Y-4.125
X5.9Y-4.225
X5.9Y-4.325
T5
X4.6Y-2.9
X4.6Y-3.0969
X6.2Y-2.8
X6.2031Y-4.4
X6.3969Y-2.8
X6.4Y-4.4
X6.7Y-2.8
X6.7031Y-4.4
X6.8969Y-2.8
X6.9Y-4.4
X7.2031Y-4.4
X7.4Y-4.4
T6
X2.4291Y-3.5413
X2.4291Y-4.0587
T7
X2.9Y-3.4
X2.9Y-4.2
X4.9Y-3.4
X4.9Y-4.2
X6.1929Y-3.4
X6.5Y-3.4
X6.8071Y-3.4
T8
X2.65Y-4.525
T9
X7.4Y-2.8583
X7.4Y-3.1417
T3
G00X7.0638Y-3.7771
M15
G01X7.0638Y-3.6983
M16
G05
G00X7.2213Y-3.5527
M15
G01X7.1425Y-3.5527
M16
G05
G00X7.3Y-3.7771
M15
G01X7.3Y-3.6983
M16
G05
T0
M30
