%TF.GenerationSoftware,KiCad,Pcbnew,6.0.2+dfsg-1*%
%TF.CreationDate,2023-05-04T17:56:36+06:00*%
%TF.ProjectId,mega_model,6d656761-5f6d-46f6-9465-6c2e6b696361,rev?*%
%TF.SameCoordinates,Original*%
%TF.FileFunction,Legend,Top*%
%TF.FilePolarity,Positive*%
%FSLAX46Y46*%
G04 Gerber Fmt 4.6, Leading zero omitted, Abs format (unit mm)*
G04 Created by KiCad (PCBNEW 6.0.2+dfsg-1) date 2023-05-04 17:56:36*
%MOMM*%
%LPD*%
G01*
G04 APERTURE LIST*
%TA.AperFunction,Profile*%
%ADD10C,0.150000*%
%TD*%
%ADD11C,0.300000*%
%ADD12C,0.150000*%
%ADD13C,0.400000*%
%ADD14C,0.120000*%
%ADD15R,1.727200X1.727200*%
%ADD16O,1.727200X1.727200*%
%ADD17O,1.727200X2.032000*%
%ADD18R,1.727200X2.032000*%
%ADD19C,4.064000*%
G04 APERTURE END LIST*
D10*
X53340000Y-117475000D02*
X53340000Y-64135000D01*
X195580000Y-64135000D02*
X195580000Y-117475000D01*
X195580000Y-117475000D02*
X53340000Y-117475000D01*
X53340000Y-64135000D02*
X195580000Y-64135000D01*
D11*
X60388571Y-92627142D02*
X61531428Y-92627142D01*
X60960000Y-93198571D02*
X60960000Y-92055714D01*
X187388571Y-106787142D02*
X188531428Y-106787142D01*
X187960000Y-107358571D02*
X187960000Y-106215714D01*
X169608571Y-76307142D02*
X170751428Y-76307142D01*
X170180000Y-76878571D02*
X170180000Y-75735714D01*
X141718571Y-99167142D02*
X142861428Y-99167142D01*
X156908571Y-76307142D02*
X158051428Y-76307142D01*
X157480000Y-76878571D02*
X157480000Y-75735714D01*
X60388571Y-99167142D02*
X61531428Y-99167142D01*
X141053571Y-106787142D02*
X142196428Y-106787142D01*
X131438571Y-76307142D02*
X132581428Y-76307142D01*
X132010000Y-76878571D02*
X132010000Y-75735714D01*
X131438571Y-99167142D02*
X132581428Y-99167142D01*
X132010000Y-99738571D02*
X132010000Y-98595714D01*
X111188571Y-78847142D02*
X112331428Y-78847142D01*
X111760000Y-79418571D02*
X111760000Y-78275714D01*
X169608571Y-106787142D02*
X170751428Y-106787142D01*
X185298571Y-99167142D02*
X186441428Y-99167142D01*
X141053571Y-83927142D02*
X142196428Y-83927142D01*
X131438571Y-83927142D02*
X132581428Y-83927142D01*
X132010000Y-84498571D02*
X132010000Y-83355714D01*
X174688571Y-76307142D02*
X175831428Y-76307142D01*
X156908571Y-106787142D02*
X158051428Y-106787142D01*
X131438571Y-91547142D02*
X132581428Y-91547142D01*
X132010000Y-92118571D02*
X132010000Y-90975714D01*
X161988571Y-76307142D02*
X163131428Y-76307142D01*
X75560000Y-95698571D02*
X75845714Y-95698571D01*
X75988571Y-95770000D01*
X76131428Y-95912857D01*
X76202857Y-96198571D01*
X76202857Y-96698571D01*
X76131428Y-96984285D01*
X75988571Y-97127142D01*
X75845714Y-97198571D01*
X75560000Y-97198571D01*
X75417142Y-97127142D01*
X75274285Y-96984285D01*
X75202857Y-96698571D01*
X75202857Y-96198571D01*
X75274285Y-95912857D01*
X75417142Y-95770000D01*
X75560000Y-95698571D01*
X76845714Y-95698571D02*
X76845714Y-96912857D01*
X76917142Y-97055714D01*
X76988571Y-97127142D01*
X77131428Y-97198571D01*
X77417142Y-97198571D01*
X77560000Y-97127142D01*
X77631428Y-97055714D01*
X77702857Y-96912857D01*
X77702857Y-95698571D01*
X78202857Y-95698571D02*
X79060000Y-95698571D01*
X78631428Y-97198571D02*
X78631428Y-95698571D01*
X79988571Y-97770000D02*
X79917142Y-97698571D01*
X79774285Y-97484285D01*
X79702857Y-97341428D01*
X79631428Y-97127142D01*
X79560000Y-96770000D01*
X79560000Y-96484285D01*
X79631428Y-96127142D01*
X79702857Y-95912857D01*
X79774285Y-95770000D01*
X79917142Y-95555714D01*
X79988571Y-95484285D01*
X81274285Y-95698571D02*
X80560000Y-95698571D01*
X80488571Y-96412857D01*
X80560000Y-96341428D01*
X80702857Y-96270000D01*
X81060000Y-96270000D01*
X81202857Y-96341428D01*
X81274285Y-96412857D01*
X81345714Y-96555714D01*
X81345714Y-96912857D01*
X81274285Y-97055714D01*
X81202857Y-97127142D01*
X81060000Y-97198571D01*
X80702857Y-97198571D01*
X80560000Y-97127142D01*
X80488571Y-97055714D01*
X81774285Y-95698571D02*
X82274285Y-97198571D01*
X82774285Y-95698571D01*
X83131428Y-97770000D02*
X83202857Y-97698571D01*
X83345714Y-97484285D01*
X83417142Y-97341428D01*
X83488571Y-97127142D01*
X83560000Y-96770000D01*
X83560000Y-96484285D01*
X83488571Y-96127142D01*
X83417142Y-95912857D01*
X83345714Y-95770000D01*
X83202857Y-95555714D01*
X83131428Y-95484285D01*
X91631428Y-96412857D02*
X91845714Y-96484285D01*
X91917142Y-96555714D01*
X91988571Y-96698571D01*
X91988571Y-96912857D01*
X91917142Y-97055714D01*
X91845714Y-97127142D01*
X91702857Y-97198571D01*
X91131428Y-97198571D01*
X91131428Y-95698571D01*
X91631428Y-95698571D01*
X91774285Y-95770000D01*
X91845714Y-95841428D01*
X91917142Y-95984285D01*
X91917142Y-96127142D01*
X91845714Y-96270000D01*
X91774285Y-96341428D01*
X91631428Y-96412857D01*
X91131428Y-96412857D01*
X93274285Y-96198571D02*
X93274285Y-97198571D01*
X92631428Y-96198571D02*
X92631428Y-96984285D01*
X92702857Y-97127142D01*
X92845714Y-97198571D01*
X93059999Y-97198571D01*
X93202857Y-97127142D01*
X93274285Y-97055714D01*
X94631428Y-97127142D02*
X94488571Y-97198571D01*
X94202857Y-97198571D01*
X94059999Y-97127142D01*
X93988571Y-97055714D01*
X93917142Y-96912857D01*
X93917142Y-96484285D01*
X93988571Y-96341428D01*
X94059999Y-96270000D01*
X94202857Y-96198571D01*
X94488571Y-96198571D01*
X94631428Y-96270000D01*
X95274285Y-97198571D02*
X95274285Y-95698571D01*
X95417142Y-96627142D02*
X95845714Y-97198571D01*
X95845714Y-96198571D02*
X95274285Y-96770000D01*
X98488571Y-97055714D02*
X98417142Y-97127142D01*
X98202857Y-97198571D01*
X98059999Y-97198571D01*
X97845714Y-97127142D01*
X97702857Y-96984285D01*
X97631428Y-96841428D01*
X97559999Y-96555714D01*
X97559999Y-96341428D01*
X97631428Y-96055714D01*
X97702857Y-95912857D01*
X97845714Y-95770000D01*
X98059999Y-95698571D01*
X98202857Y-95698571D01*
X98417142Y-95770000D01*
X98488571Y-95841428D01*
X99345714Y-97198571D02*
X99202857Y-97127142D01*
X99131428Y-97055714D01*
X99059999Y-96912857D01*
X99059999Y-96484285D01*
X99131428Y-96341428D01*
X99202857Y-96270000D01*
X99345714Y-96198571D01*
X99559999Y-96198571D01*
X99702857Y-96270000D01*
X99774285Y-96341428D01*
X99845714Y-96484285D01*
X99845714Y-96912857D01*
X99774285Y-97055714D01*
X99702857Y-97127142D01*
X99559999Y-97198571D01*
X99345714Y-97198571D01*
X100488571Y-96198571D02*
X100488571Y-97198571D01*
X100488571Y-96341428D02*
X100559999Y-96270000D01*
X100702857Y-96198571D01*
X100917142Y-96198571D01*
X101059999Y-96270000D01*
X101131428Y-96412857D01*
X101131428Y-97198571D01*
X101702857Y-96198571D02*
X102059999Y-97198571D01*
X102417142Y-96198571D01*
X103559999Y-97127142D02*
X103417142Y-97198571D01*
X103131428Y-97198571D01*
X102988571Y-97127142D01*
X102917142Y-96984285D01*
X102917142Y-96412857D01*
X102988571Y-96270000D01*
X103131428Y-96198571D01*
X103417142Y-96198571D01*
X103559999Y-96270000D01*
X103631428Y-96412857D01*
X103631428Y-96555714D01*
X102917142Y-96698571D01*
X104274285Y-97198571D02*
X104274285Y-96198571D01*
X104274285Y-96484285D02*
X104345714Y-96341428D01*
X104417142Y-96270000D01*
X104559999Y-96198571D01*
X104702857Y-96198571D01*
X104988571Y-96198571D02*
X105559999Y-96198571D01*
X105202857Y-95698571D02*
X105202857Y-96984285D01*
X105274285Y-97127142D01*
X105417142Y-97198571D01*
X105559999Y-97198571D01*
X106631428Y-97127142D02*
X106488571Y-97198571D01*
X106202857Y-97198571D01*
X106060000Y-97127142D01*
X105988571Y-96984285D01*
X105988571Y-96412857D01*
X106060000Y-96270000D01*
X106202857Y-96198571D01*
X106488571Y-96198571D01*
X106631428Y-96270000D01*
X106702857Y-96412857D01*
X106702857Y-96555714D01*
X105988571Y-96698571D01*
X107345714Y-97198571D02*
X107345714Y-96198571D01*
X107345714Y-96484285D02*
X107417142Y-96341428D01*
X107488571Y-96270000D01*
X107631428Y-96198571D01*
X107774285Y-96198571D01*
X115131428Y-97198571D02*
X115131428Y-95698571D01*
X115845714Y-97198571D02*
X115845714Y-95698571D01*
X116702857Y-97198571D01*
X116702857Y-95698571D01*
X117845714Y-97770000D02*
X117774285Y-97698571D01*
X117631428Y-97484285D01*
X117560000Y-97341428D01*
X117488571Y-97127142D01*
X117417142Y-96770000D01*
X117417142Y-96484285D01*
X117488571Y-96127142D01*
X117560000Y-95912857D01*
X117631428Y-95770000D01*
X117774285Y-95555714D01*
X117845714Y-95484285D01*
X119202857Y-97198571D02*
X118345714Y-97198571D01*
X118774285Y-97198571D02*
X118774285Y-95698571D01*
X118631428Y-95912857D01*
X118488571Y-96055714D01*
X118345714Y-96127142D01*
X119774285Y-95841428D02*
X119845714Y-95770000D01*
X119988571Y-95698571D01*
X120345714Y-95698571D01*
X120488571Y-95770000D01*
X120560000Y-95841428D01*
X120631428Y-95984285D01*
X120631428Y-96127142D01*
X120560000Y-96341428D01*
X119702857Y-97198571D01*
X120631428Y-97198571D01*
X121059999Y-95698571D02*
X121559999Y-97198571D01*
X122059999Y-95698571D01*
X122417142Y-97770000D02*
X122488571Y-97698571D01*
X122631428Y-97484285D01*
X122702857Y-97341428D01*
X122774285Y-97127142D01*
X122845714Y-96770000D01*
X122845714Y-96484285D01*
X122774285Y-96127142D01*
X122702857Y-95912857D01*
X122631428Y-95770000D01*
X122488571Y-95555714D01*
X122417142Y-95484285D01*
D12*
X81732380Y-112109285D02*
X81732380Y-112680714D01*
X81732380Y-112395000D02*
X80732380Y-112395000D01*
X80875238Y-112490238D01*
X80970476Y-112585476D01*
X81018095Y-112680714D01*
D11*
X161988571Y-106787142D02*
X163131428Y-106787142D01*
X162560000Y-107358571D02*
X162560000Y-106215714D01*
D13*
X153442857Y-97334285D02*
X153442857Y-95534285D01*
X154471428Y-97334285D01*
X154471428Y-95534285D01*
X155242857Y-97248571D02*
X155500000Y-97334285D01*
X155928571Y-97334285D01*
X156100000Y-97248571D01*
X156185714Y-97162857D01*
X156271428Y-96991428D01*
X156271428Y-96820000D01*
X156185714Y-96648571D01*
X156100000Y-96562857D01*
X155928571Y-96477142D01*
X155585714Y-96391428D01*
X155414285Y-96305714D01*
X155328571Y-96220000D01*
X155242857Y-96048571D01*
X155242857Y-95877142D01*
X155328571Y-95705714D01*
X155414285Y-95620000D01*
X155585714Y-95534285D01*
X156014285Y-95534285D01*
X156271428Y-95620000D01*
X157900000Y-97334285D02*
X157042857Y-97334285D01*
X157042857Y-95534285D01*
X159871428Y-97334285D02*
X159871428Y-95534285D01*
X160471428Y-96820000D01*
X161071428Y-95534285D01*
X161071428Y-97334285D01*
X161928571Y-96391428D02*
X162528571Y-96391428D01*
X162785714Y-97334285D02*
X161928571Y-97334285D01*
X161928571Y-95534285D01*
X162785714Y-95534285D01*
X164500000Y-95620000D02*
X164328571Y-95534285D01*
X164071428Y-95534285D01*
X163814285Y-95620000D01*
X163642857Y-95791428D01*
X163557142Y-95962857D01*
X163471428Y-96305714D01*
X163471428Y-96562857D01*
X163557142Y-96905714D01*
X163642857Y-97077142D01*
X163814285Y-97248571D01*
X164071428Y-97334285D01*
X164242857Y-97334285D01*
X164500000Y-97248571D01*
X164585714Y-97162857D01*
X164585714Y-96562857D01*
X164242857Y-96562857D01*
X165271428Y-96820000D02*
X166128571Y-96820000D01*
X165100000Y-97334285D02*
X165700000Y-95534285D01*
X166300000Y-97334285D01*
X168185714Y-97248571D02*
X168442857Y-97334285D01*
X168871428Y-97334285D01*
X169042857Y-97248571D01*
X169128571Y-97162857D01*
X169214285Y-96991428D01*
X169214285Y-96820000D01*
X169128571Y-96648571D01*
X169042857Y-96562857D01*
X168871428Y-96477142D01*
X168528571Y-96391428D01*
X168357142Y-96305714D01*
X168271428Y-96220000D01*
X168185714Y-96048571D01*
X168185714Y-95877142D01*
X168271428Y-95705714D01*
X168357142Y-95620000D01*
X168528571Y-95534285D01*
X168957142Y-95534285D01*
X169214285Y-95620000D01*
X169985714Y-97334285D02*
X169985714Y-95534285D01*
X169985714Y-96391428D02*
X171014285Y-96391428D01*
X171014285Y-97334285D02*
X171014285Y-95534285D01*
X171871428Y-97334285D02*
X171871428Y-95534285D01*
X172728571Y-96391428D02*
X173328571Y-96391428D01*
X173585714Y-97334285D02*
X172728571Y-97334285D01*
X172728571Y-95534285D01*
X173585714Y-95534285D01*
X175214285Y-97334285D02*
X174357142Y-97334285D01*
X174357142Y-95534285D01*
X175814285Y-97334285D02*
X175814285Y-95534285D01*
X176242857Y-95534285D01*
X176500000Y-95620000D01*
X176671428Y-95791428D01*
X176757142Y-95962857D01*
X176842857Y-96305714D01*
X176842857Y-96562857D01*
X176757142Y-96905714D01*
X176671428Y-97077142D01*
X176500000Y-97248571D01*
X176242857Y-97334285D01*
X175814285Y-97334285D01*
D11*
X174688571Y-106517142D02*
X175831428Y-106517142D01*
X175260000Y-107088571D02*
X175260000Y-105945714D01*
X131508571Y-106787142D02*
X132651428Y-106787142D01*
X132080000Y-107358571D02*
X132080000Y-106215714D01*
X141053571Y-91547142D02*
X142196428Y-91547142D01*
X182308571Y-106787142D02*
X183451428Y-106787142D01*
X141738571Y-76307142D02*
X142881428Y-76307142D01*
D12*
%TO.C,J19*%
X123650476Y-102982380D02*
X123650476Y-103696666D01*
X123602857Y-103839523D01*
X123507619Y-103934761D01*
X123364761Y-103982380D01*
X123269523Y-103982380D01*
X124650476Y-103982380D02*
X124079047Y-103982380D01*
X124364761Y-103982380D02*
X124364761Y-102982380D01*
X124269523Y-103125238D01*
X124174285Y-103220476D01*
X124079047Y-103268095D01*
X125126666Y-103982380D02*
X125317142Y-103982380D01*
X125412380Y-103934761D01*
X125460000Y-103887142D01*
X125555238Y-103744285D01*
X125602857Y-103553809D01*
X125602857Y-103172857D01*
X125555238Y-103077619D01*
X125507619Y-103030000D01*
X125412380Y-102982380D01*
X125221904Y-102982380D01*
X125126666Y-103030000D01*
X125079047Y-103077619D01*
X125031428Y-103172857D01*
X125031428Y-103410952D01*
X125079047Y-103506190D01*
X125126666Y-103553809D01*
X125221904Y-103601428D01*
X125412380Y-103601428D01*
X125507619Y-103553809D01*
X125555238Y-103506190D01*
X125602857Y-103410952D01*
X121269523Y-109758571D02*
X121412380Y-109806190D01*
X121460000Y-109853809D01*
X121507619Y-109949047D01*
X121507619Y-110091904D01*
X121460000Y-110187142D01*
X121412380Y-110234761D01*
X121317142Y-110282380D01*
X120936190Y-110282380D01*
X120936190Y-109282380D01*
X121269523Y-109282380D01*
X121364761Y-109330000D01*
X121412380Y-109377619D01*
X121460000Y-109472857D01*
X121460000Y-109568095D01*
X121412380Y-109663333D01*
X121364761Y-109710952D01*
X121269523Y-109758571D01*
X120936190Y-109758571D01*
X122364761Y-109615714D02*
X122364761Y-110282380D01*
X121936190Y-109615714D02*
X121936190Y-110139523D01*
X121983809Y-110234761D01*
X122079047Y-110282380D01*
X122221904Y-110282380D01*
X122317142Y-110234761D01*
X122364761Y-110187142D01*
X123269523Y-110234761D02*
X123174285Y-110282380D01*
X122983809Y-110282380D01*
X122888571Y-110234761D01*
X122840952Y-110187142D01*
X122793333Y-110091904D01*
X122793333Y-109806190D01*
X122840952Y-109710952D01*
X122888571Y-109663333D01*
X122983809Y-109615714D01*
X123174285Y-109615714D01*
X123269523Y-109663333D01*
X123698095Y-110282380D02*
X123698095Y-109282380D01*
X123793333Y-109901428D02*
X124079047Y-110282380D01*
X124079047Y-109615714D02*
X123698095Y-109996666D01*
X124507619Y-110282380D02*
X124507619Y-109282380D01*
X124983809Y-109615714D02*
X124983809Y-110282380D01*
X124983809Y-109710952D02*
X125031428Y-109663333D01*
X125126666Y-109615714D01*
X125269523Y-109615714D01*
X125364761Y-109663333D01*
X125412380Y-109758571D01*
X125412380Y-110282380D01*
X126174285Y-110663333D02*
X126126666Y-110615714D01*
X126031428Y-110472857D01*
X125983809Y-110377619D01*
X125936190Y-110234761D01*
X125888571Y-109996666D01*
X125888571Y-109806190D01*
X125936190Y-109568095D01*
X125983809Y-109425238D01*
X126031428Y-109330000D01*
X126126666Y-109187142D01*
X126174285Y-109139523D01*
X126555238Y-109901428D02*
X127317142Y-109901428D01*
X126936190Y-110282380D02*
X126936190Y-109520476D01*
X127698095Y-110663333D02*
X127745714Y-110615714D01*
X127840952Y-110472857D01*
X127888571Y-110377619D01*
X127936190Y-110234761D01*
X127983809Y-109996666D01*
X127983809Y-109806190D01*
X127936190Y-109568095D01*
X127888571Y-109425238D01*
X127840952Y-109330000D01*
X127745714Y-109187142D01*
X127698095Y-109139523D01*
%TO.C,J20*%
X123650476Y-82662380D02*
X123650476Y-83376666D01*
X123602857Y-83519523D01*
X123507619Y-83614761D01*
X123364761Y-83662380D01*
X123269523Y-83662380D01*
X124079047Y-82757619D02*
X124126666Y-82710000D01*
X124221904Y-82662380D01*
X124460000Y-82662380D01*
X124555238Y-82710000D01*
X124602857Y-82757619D01*
X124650476Y-82852857D01*
X124650476Y-82948095D01*
X124602857Y-83090952D01*
X124031428Y-83662380D01*
X124650476Y-83662380D01*
X125269523Y-82662380D02*
X125364761Y-82662380D01*
X125460000Y-82710000D01*
X125507619Y-82757619D01*
X125555238Y-82852857D01*
X125602857Y-83043333D01*
X125602857Y-83281428D01*
X125555238Y-83471904D01*
X125507619Y-83567142D01*
X125460000Y-83614761D01*
X125364761Y-83662380D01*
X125269523Y-83662380D01*
X125174285Y-83614761D01*
X125126666Y-83567142D01*
X125079047Y-83471904D01*
X125031428Y-83281428D01*
X125031428Y-83043333D01*
X125079047Y-82852857D01*
X125126666Y-82757619D01*
X125174285Y-82710000D01*
X125269523Y-82662380D01*
X121269523Y-89438571D02*
X121412380Y-89486190D01*
X121460000Y-89533809D01*
X121507619Y-89629047D01*
X121507619Y-89771904D01*
X121460000Y-89867142D01*
X121412380Y-89914761D01*
X121317142Y-89962380D01*
X120936190Y-89962380D01*
X120936190Y-88962380D01*
X121269523Y-88962380D01*
X121364761Y-89010000D01*
X121412380Y-89057619D01*
X121460000Y-89152857D01*
X121460000Y-89248095D01*
X121412380Y-89343333D01*
X121364761Y-89390952D01*
X121269523Y-89438571D01*
X120936190Y-89438571D01*
X122364761Y-89295714D02*
X122364761Y-89962380D01*
X121936190Y-89295714D02*
X121936190Y-89819523D01*
X121983809Y-89914761D01*
X122079047Y-89962380D01*
X122221904Y-89962380D01*
X122317142Y-89914761D01*
X122364761Y-89867142D01*
X123269523Y-89914761D02*
X123174285Y-89962380D01*
X122983809Y-89962380D01*
X122888571Y-89914761D01*
X122840952Y-89867142D01*
X122793333Y-89771904D01*
X122793333Y-89486190D01*
X122840952Y-89390952D01*
X122888571Y-89343333D01*
X122983809Y-89295714D01*
X123174285Y-89295714D01*
X123269523Y-89343333D01*
X123698095Y-89962380D02*
X123698095Y-88962380D01*
X123793333Y-89581428D02*
X124079047Y-89962380D01*
X124079047Y-89295714D02*
X123698095Y-89676666D01*
X124507619Y-89962380D02*
X124507619Y-88962380D01*
X124983809Y-89295714D02*
X124983809Y-89962380D01*
X124983809Y-89390952D02*
X125031428Y-89343333D01*
X125126666Y-89295714D01*
X125269523Y-89295714D01*
X125364761Y-89343333D01*
X125412380Y-89438571D01*
X125412380Y-89962380D01*
X126174285Y-90343333D02*
X126126666Y-90295714D01*
X126031428Y-90152857D01*
X125983809Y-90057619D01*
X125936190Y-89914761D01*
X125888571Y-89676666D01*
X125888571Y-89486190D01*
X125936190Y-89248095D01*
X125983809Y-89105238D01*
X126031428Y-89010000D01*
X126126666Y-88867142D01*
X126174285Y-88819523D01*
X126555238Y-89581428D02*
X127317142Y-89581428D01*
X127698095Y-90343333D02*
X127745714Y-90295714D01*
X127840952Y-90152857D01*
X127888571Y-90057619D01*
X127936190Y-89914761D01*
X127983809Y-89676666D01*
X127983809Y-89486190D01*
X127936190Y-89248095D01*
X127888571Y-89105238D01*
X127840952Y-89010000D01*
X127745714Y-88867142D01*
X127698095Y-88819523D01*
%TO.C,J22*%
X72850476Y-82662380D02*
X72850476Y-83376666D01*
X72802857Y-83519523D01*
X72707619Y-83614761D01*
X72564761Y-83662380D01*
X72469523Y-83662380D01*
X73279047Y-82757619D02*
X73326666Y-82710000D01*
X73421904Y-82662380D01*
X73660000Y-82662380D01*
X73755238Y-82710000D01*
X73802857Y-82757619D01*
X73850476Y-82852857D01*
X73850476Y-82948095D01*
X73802857Y-83090952D01*
X73231428Y-83662380D01*
X73850476Y-83662380D01*
X74231428Y-82757619D02*
X74279047Y-82710000D01*
X74374285Y-82662380D01*
X74612380Y-82662380D01*
X74707619Y-82710000D01*
X74755238Y-82757619D01*
X74802857Y-82852857D01*
X74802857Y-82948095D01*
X74755238Y-83090952D01*
X74183809Y-83662380D01*
X74802857Y-83662380D01*
X69898095Y-89438571D02*
X70040952Y-89486190D01*
X70088571Y-89533809D01*
X70136190Y-89629047D01*
X70136190Y-89771904D01*
X70088571Y-89867142D01*
X70040952Y-89914761D01*
X69945714Y-89962380D01*
X69564761Y-89962380D01*
X69564761Y-88962380D01*
X69898095Y-88962380D01*
X69993333Y-89010000D01*
X70040952Y-89057619D01*
X70088571Y-89152857D01*
X70088571Y-89248095D01*
X70040952Y-89343333D01*
X69993333Y-89390952D01*
X69898095Y-89438571D01*
X69564761Y-89438571D01*
X70993333Y-89295714D02*
X70993333Y-89962380D01*
X70564761Y-89295714D02*
X70564761Y-89819523D01*
X70612380Y-89914761D01*
X70707619Y-89962380D01*
X70850476Y-89962380D01*
X70945714Y-89914761D01*
X70993333Y-89867142D01*
X71898095Y-89914761D02*
X71802857Y-89962380D01*
X71612380Y-89962380D01*
X71517142Y-89914761D01*
X71469523Y-89867142D01*
X71421904Y-89771904D01*
X71421904Y-89486190D01*
X71469523Y-89390952D01*
X71517142Y-89343333D01*
X71612380Y-89295714D01*
X71802857Y-89295714D01*
X71898095Y-89343333D01*
X72326666Y-89962380D02*
X72326666Y-88962380D01*
X72421904Y-89581428D02*
X72707619Y-89962380D01*
X72707619Y-89295714D02*
X72326666Y-89676666D01*
X73326666Y-88962380D02*
X73517142Y-88962380D01*
X73612380Y-89010000D01*
X73707619Y-89105238D01*
X73755238Y-89295714D01*
X73755238Y-89629047D01*
X73707619Y-89819523D01*
X73612380Y-89914761D01*
X73517142Y-89962380D01*
X73326666Y-89962380D01*
X73231428Y-89914761D01*
X73136190Y-89819523D01*
X73088571Y-89629047D01*
X73088571Y-89295714D01*
X73136190Y-89105238D01*
X73231428Y-89010000D01*
X73326666Y-88962380D01*
X74612380Y-89295714D02*
X74612380Y-89962380D01*
X74183809Y-89295714D02*
X74183809Y-89819523D01*
X74231428Y-89914761D01*
X74326666Y-89962380D01*
X74469523Y-89962380D01*
X74564761Y-89914761D01*
X74612380Y-89867142D01*
X74945714Y-89295714D02*
X75326666Y-89295714D01*
X75088571Y-88962380D02*
X75088571Y-89819523D01*
X75136190Y-89914761D01*
X75231428Y-89962380D01*
X75326666Y-89962380D01*
X75945714Y-90343333D02*
X75898095Y-90295714D01*
X75802857Y-90152857D01*
X75755238Y-90057619D01*
X75707619Y-89914761D01*
X75660000Y-89676666D01*
X75660000Y-89486190D01*
X75707619Y-89248095D01*
X75755238Y-89105238D01*
X75802857Y-89010000D01*
X75898095Y-88867142D01*
X75945714Y-88819523D01*
X76326666Y-89581428D02*
X77088571Y-89581428D01*
X77469523Y-90343333D02*
X77517142Y-90295714D01*
X77612380Y-90152857D01*
X77660000Y-90057619D01*
X77707619Y-89914761D01*
X77755238Y-89676666D01*
X77755238Y-89486190D01*
X77707619Y-89248095D01*
X77660000Y-89105238D01*
X77612380Y-89010000D01*
X77517142Y-88867142D01*
X77469523Y-88819523D01*
%TO.C,J23*%
X72850476Y-102982380D02*
X72850476Y-103696666D01*
X72802857Y-103839523D01*
X72707619Y-103934761D01*
X72564761Y-103982380D01*
X72469523Y-103982380D01*
X73279047Y-103077619D02*
X73326666Y-103030000D01*
X73421904Y-102982380D01*
X73660000Y-102982380D01*
X73755238Y-103030000D01*
X73802857Y-103077619D01*
X73850476Y-103172857D01*
X73850476Y-103268095D01*
X73802857Y-103410952D01*
X73231428Y-103982380D01*
X73850476Y-103982380D01*
X74183809Y-102982380D02*
X74802857Y-102982380D01*
X74469523Y-103363333D01*
X74612380Y-103363333D01*
X74707619Y-103410952D01*
X74755238Y-103458571D01*
X74802857Y-103553809D01*
X74802857Y-103791904D01*
X74755238Y-103887142D01*
X74707619Y-103934761D01*
X74612380Y-103982380D01*
X74326666Y-103982380D01*
X74231428Y-103934761D01*
X74183809Y-103887142D01*
X69898095Y-109758571D02*
X70040952Y-109806190D01*
X70088571Y-109853809D01*
X70136190Y-109949047D01*
X70136190Y-110091904D01*
X70088571Y-110187142D01*
X70040952Y-110234761D01*
X69945714Y-110282380D01*
X69564761Y-110282380D01*
X69564761Y-109282380D01*
X69898095Y-109282380D01*
X69993333Y-109330000D01*
X70040952Y-109377619D01*
X70088571Y-109472857D01*
X70088571Y-109568095D01*
X70040952Y-109663333D01*
X69993333Y-109710952D01*
X69898095Y-109758571D01*
X69564761Y-109758571D01*
X70993333Y-109615714D02*
X70993333Y-110282380D01*
X70564761Y-109615714D02*
X70564761Y-110139523D01*
X70612380Y-110234761D01*
X70707619Y-110282380D01*
X70850476Y-110282380D01*
X70945714Y-110234761D01*
X70993333Y-110187142D01*
X71898095Y-110234761D02*
X71802857Y-110282380D01*
X71612380Y-110282380D01*
X71517142Y-110234761D01*
X71469523Y-110187142D01*
X71421904Y-110091904D01*
X71421904Y-109806190D01*
X71469523Y-109710952D01*
X71517142Y-109663333D01*
X71612380Y-109615714D01*
X71802857Y-109615714D01*
X71898095Y-109663333D01*
X72326666Y-110282380D02*
X72326666Y-109282380D01*
X72421904Y-109901428D02*
X72707619Y-110282380D01*
X72707619Y-109615714D02*
X72326666Y-109996666D01*
X73326666Y-109282380D02*
X73517142Y-109282380D01*
X73612380Y-109330000D01*
X73707619Y-109425238D01*
X73755238Y-109615714D01*
X73755238Y-109949047D01*
X73707619Y-110139523D01*
X73612380Y-110234761D01*
X73517142Y-110282380D01*
X73326666Y-110282380D01*
X73231428Y-110234761D01*
X73136190Y-110139523D01*
X73088571Y-109949047D01*
X73088571Y-109615714D01*
X73136190Y-109425238D01*
X73231428Y-109330000D01*
X73326666Y-109282380D01*
X74612380Y-109615714D02*
X74612380Y-110282380D01*
X74183809Y-109615714D02*
X74183809Y-110139523D01*
X74231428Y-110234761D01*
X74326666Y-110282380D01*
X74469523Y-110282380D01*
X74564761Y-110234761D01*
X74612380Y-110187142D01*
X74945714Y-109615714D02*
X75326666Y-109615714D01*
X75088571Y-109282380D02*
X75088571Y-110139523D01*
X75136190Y-110234761D01*
X75231428Y-110282380D01*
X75326666Y-110282380D01*
X75945714Y-110663333D02*
X75898095Y-110615714D01*
X75802857Y-110472857D01*
X75755238Y-110377619D01*
X75707619Y-110234761D01*
X75660000Y-109996666D01*
X75660000Y-109806190D01*
X75707619Y-109568095D01*
X75755238Y-109425238D01*
X75802857Y-109330000D01*
X75898095Y-109187142D01*
X75945714Y-109139523D01*
X76326666Y-109901428D02*
X77088571Y-109901428D01*
X76707619Y-110282380D02*
X76707619Y-109520476D01*
X77469523Y-110663333D02*
X77517142Y-110615714D01*
X77612380Y-110472857D01*
X77660000Y-110377619D01*
X77707619Y-110234761D01*
X77755238Y-109996666D01*
X77755238Y-109806190D01*
X77707619Y-109568095D01*
X77660000Y-109425238D01*
X77612380Y-109330000D01*
X77517142Y-109187142D01*
X77469523Y-109139523D01*
%TO.C,P1*%
X144978380Y-89003095D02*
X143978380Y-89003095D01*
X143978380Y-88622142D01*
X144026000Y-88526904D01*
X144073619Y-88479285D01*
X144168857Y-88431666D01*
X144311714Y-88431666D01*
X144406952Y-88479285D01*
X144454571Y-88526904D01*
X144502190Y-88622142D01*
X144502190Y-89003095D01*
X144978380Y-87479285D02*
X144978380Y-88050714D01*
X144978380Y-87765000D02*
X143978380Y-87765000D01*
X144121238Y-87860238D01*
X144216476Y-87955476D01*
X144264095Y-88050714D01*
%TO.C,P2*%
X89431904Y-112593380D02*
X89431904Y-111593380D01*
X89812857Y-111593380D01*
X89908095Y-111641000D01*
X89955714Y-111688619D01*
X90003333Y-111783857D01*
X90003333Y-111926714D01*
X89955714Y-112021952D01*
X89908095Y-112069571D01*
X89812857Y-112117190D01*
X89431904Y-112117190D01*
X90384285Y-111688619D02*
X90431904Y-111641000D01*
X90527142Y-111593380D01*
X90765238Y-111593380D01*
X90860476Y-111641000D01*
X90908095Y-111688619D01*
X90955714Y-111783857D01*
X90955714Y-111879095D01*
X90908095Y-112021952D01*
X90336666Y-112593380D01*
X90955714Y-112593380D01*
%TO.C,P3*%
X112291904Y-112847380D02*
X112291904Y-111847380D01*
X112672857Y-111847380D01*
X112768095Y-111895000D01*
X112815714Y-111942619D01*
X112863333Y-112037857D01*
X112863333Y-112180714D01*
X112815714Y-112275952D01*
X112768095Y-112323571D01*
X112672857Y-112371190D01*
X112291904Y-112371190D01*
X113196666Y-111847380D02*
X113815714Y-111847380D01*
X113482380Y-112228333D01*
X113625238Y-112228333D01*
X113720476Y-112275952D01*
X113768095Y-112323571D01*
X113815714Y-112418809D01*
X113815714Y-112656904D01*
X113768095Y-112752142D01*
X113720476Y-112799761D01*
X113625238Y-112847380D01*
X113339523Y-112847380D01*
X113244285Y-112799761D01*
X113196666Y-112752142D01*
%TO.C,P4*%
X135151904Y-112593380D02*
X135151904Y-111593380D01*
X135532857Y-111593380D01*
X135628095Y-111641000D01*
X135675714Y-111688619D01*
X135723333Y-111783857D01*
X135723333Y-111926714D01*
X135675714Y-112021952D01*
X135628095Y-112069571D01*
X135532857Y-112117190D01*
X135151904Y-112117190D01*
X136580476Y-111926714D02*
X136580476Y-112593380D01*
X136342380Y-111545761D02*
X136104285Y-112260047D01*
X136723333Y-112260047D01*
%TO.C,P5*%
X84097904Y-69921380D02*
X84097904Y-68921380D01*
X84478857Y-68921380D01*
X84574095Y-68969000D01*
X84621714Y-69016619D01*
X84669333Y-69111857D01*
X84669333Y-69254714D01*
X84621714Y-69349952D01*
X84574095Y-69397571D01*
X84478857Y-69445190D01*
X84097904Y-69445190D01*
X85574095Y-68921380D02*
X85097904Y-68921380D01*
X85050285Y-69397571D01*
X85097904Y-69349952D01*
X85193142Y-69302333D01*
X85431238Y-69302333D01*
X85526476Y-69349952D01*
X85574095Y-69397571D01*
X85621714Y-69492809D01*
X85621714Y-69730904D01*
X85574095Y-69826142D01*
X85526476Y-69873761D01*
X85431238Y-69921380D01*
X85193142Y-69921380D01*
X85097904Y-69873761D01*
X85050285Y-69826142D01*
%TO.C,P6*%
X107211904Y-69921380D02*
X107211904Y-68921380D01*
X107592857Y-68921380D01*
X107688095Y-68969000D01*
X107735714Y-69016619D01*
X107783333Y-69111857D01*
X107783333Y-69254714D01*
X107735714Y-69349952D01*
X107688095Y-69397571D01*
X107592857Y-69445190D01*
X107211904Y-69445190D01*
X108640476Y-68921380D02*
X108450000Y-68921380D01*
X108354761Y-68969000D01*
X108307142Y-69016619D01*
X108211904Y-69159476D01*
X108164285Y-69349952D01*
X108164285Y-69730904D01*
X108211904Y-69826142D01*
X108259523Y-69873761D01*
X108354761Y-69921380D01*
X108545238Y-69921380D01*
X108640476Y-69873761D01*
X108688095Y-69826142D01*
X108735714Y-69730904D01*
X108735714Y-69492809D01*
X108688095Y-69397571D01*
X108640476Y-69349952D01*
X108545238Y-69302333D01*
X108354761Y-69302333D01*
X108259523Y-69349952D01*
X108211904Y-69397571D01*
X108164285Y-69492809D01*
%TO.C,P7*%
X130071904Y-69921380D02*
X130071904Y-68921380D01*
X130452857Y-68921380D01*
X130548095Y-68969000D01*
X130595714Y-69016619D01*
X130643333Y-69111857D01*
X130643333Y-69254714D01*
X130595714Y-69349952D01*
X130548095Y-69397571D01*
X130452857Y-69445190D01*
X130071904Y-69445190D01*
X130976666Y-68921380D02*
X131643333Y-68921380D01*
X131214761Y-69921380D01*
%TO.C,J17*%
X68032380Y-97329523D02*
X68746666Y-97329523D01*
X68889523Y-97377142D01*
X68984761Y-97472380D01*
X69032380Y-97615238D01*
X69032380Y-97710476D01*
X69032380Y-96329523D02*
X69032380Y-96900952D01*
X69032380Y-96615238D02*
X68032380Y-96615238D01*
X68175238Y-96710476D01*
X68270476Y-96805714D01*
X68318095Y-96900952D01*
X68032380Y-95996190D02*
X68032380Y-95329523D01*
X69032380Y-95758095D01*
%TO.C,J18*%
X187060476Y-88639880D02*
X187060476Y-89354166D01*
X187012857Y-89497023D01*
X186917619Y-89592261D01*
X186774761Y-89639880D01*
X186679523Y-89639880D01*
X188060476Y-89639880D02*
X187489047Y-89639880D01*
X187774761Y-89639880D02*
X187774761Y-88639880D01*
X187679523Y-88782738D01*
X187584285Y-88877976D01*
X187489047Y-88925595D01*
X188631904Y-89068452D02*
X188536666Y-89020833D01*
X188489047Y-88973214D01*
X188441428Y-88877976D01*
X188441428Y-88830357D01*
X188489047Y-88735119D01*
X188536666Y-88687500D01*
X188631904Y-88639880D01*
X188822380Y-88639880D01*
X188917619Y-88687500D01*
X188965238Y-88735119D01*
X189012857Y-88830357D01*
X189012857Y-88877976D01*
X188965238Y-88973214D01*
X188917619Y-89020833D01*
X188822380Y-89068452D01*
X188631904Y-89068452D01*
X188536666Y-89116071D01*
X188489047Y-89163690D01*
X188441428Y-89258928D01*
X188441428Y-89449404D01*
X188489047Y-89544642D01*
X188536666Y-89592261D01*
X188631904Y-89639880D01*
X188822380Y-89639880D01*
X188917619Y-89592261D01*
X188965238Y-89544642D01*
X189012857Y-89449404D01*
X189012857Y-89258928D01*
X188965238Y-89163690D01*
X188917619Y-89116071D01*
X188822380Y-89068452D01*
%TO.C,J11*%
X177100476Y-103592380D02*
X177100476Y-104306666D01*
X177052857Y-104449523D01*
X176957619Y-104544761D01*
X176814761Y-104592380D01*
X176719523Y-104592380D01*
X178100476Y-104592380D02*
X177529047Y-104592380D01*
X177814761Y-104592380D02*
X177814761Y-103592380D01*
X177719523Y-103735238D01*
X177624285Y-103830476D01*
X177529047Y-103878095D01*
X179052857Y-104592380D02*
X178481428Y-104592380D01*
X178767142Y-104592380D02*
X178767142Y-103592380D01*
X178671904Y-103735238D01*
X178576666Y-103830476D01*
X178481428Y-103878095D01*
X168980000Y-104462380D02*
X168980000Y-103462380D01*
X169218095Y-103462380D01*
X169360952Y-103510000D01*
X169456190Y-103605238D01*
X169503809Y-103700476D01*
X169551428Y-103890952D01*
X169551428Y-104033809D01*
X169503809Y-104224285D01*
X169456190Y-104319523D01*
X169360952Y-104414761D01*
X169218095Y-104462380D01*
X168980000Y-104462380D01*
X169980000Y-104462380D02*
X169980000Y-103795714D01*
X169980000Y-103986190D02*
X170027619Y-103890952D01*
X170075238Y-103843333D01*
X170170476Y-103795714D01*
X170265714Y-103795714D01*
X170599047Y-104462380D02*
X170599047Y-103795714D01*
X170599047Y-103462380D02*
X170551428Y-103510000D01*
X170599047Y-103557619D01*
X170646666Y-103510000D01*
X170599047Y-103462380D01*
X170599047Y-103557619D01*
X170980000Y-103795714D02*
X171218095Y-104462380D01*
X171456190Y-103795714D01*
X172218095Y-104414761D02*
X172122857Y-104462380D01*
X171932380Y-104462380D01*
X171837142Y-104414761D01*
X171789523Y-104319523D01*
X171789523Y-103938571D01*
X171837142Y-103843333D01*
X171932380Y-103795714D01*
X172122857Y-103795714D01*
X172218095Y-103843333D01*
X172265714Y-103938571D01*
X172265714Y-104033809D01*
X171789523Y-104129047D01*
X172694285Y-104462380D02*
X172694285Y-103795714D01*
X172694285Y-103986190D02*
X172741904Y-103890952D01*
X172789523Y-103843333D01*
X172884761Y-103795714D01*
X172980000Y-103795714D01*
X173313333Y-104081428D02*
X174075238Y-104081428D01*
X174741904Y-103462380D02*
X174837142Y-103462380D01*
X174932380Y-103510000D01*
X174980000Y-103557619D01*
X175027619Y-103652857D01*
X175075238Y-103843333D01*
X175075238Y-104081428D01*
X175027619Y-104271904D01*
X174980000Y-104367142D01*
X174932380Y-104414761D01*
X174837142Y-104462380D01*
X174741904Y-104462380D01*
X174646666Y-104414761D01*
X174599047Y-104367142D01*
X174551428Y-104271904D01*
X174503809Y-104081428D01*
X174503809Y-103843333D01*
X174551428Y-103652857D01*
X174599047Y-103557619D01*
X174646666Y-103510000D01*
X174741904Y-103462380D01*
X176027619Y-104462380D02*
X175456190Y-104462380D01*
X175741904Y-104462380D02*
X175741904Y-103462380D01*
X175646666Y-103605238D01*
X175551428Y-103700476D01*
X175456190Y-103748095D01*
%TO.C,SW1*%
X163766666Y-89914761D02*
X163909523Y-89962380D01*
X164147619Y-89962380D01*
X164242857Y-89914761D01*
X164290476Y-89867142D01*
X164338095Y-89771904D01*
X164338095Y-89676666D01*
X164290476Y-89581428D01*
X164242857Y-89533809D01*
X164147619Y-89486190D01*
X163957142Y-89438571D01*
X163861904Y-89390952D01*
X163814285Y-89343333D01*
X163766666Y-89248095D01*
X163766666Y-89152857D01*
X163814285Y-89057619D01*
X163861904Y-89010000D01*
X163957142Y-88962380D01*
X164195238Y-88962380D01*
X164338095Y-89010000D01*
X164671428Y-88962380D02*
X164909523Y-89962380D01*
X165100000Y-89248095D01*
X165290476Y-89962380D01*
X165528571Y-88962380D01*
X166433333Y-89962380D02*
X165861904Y-89962380D01*
X166147619Y-89962380D02*
X166147619Y-88962380D01*
X166052380Y-89105238D01*
X165957142Y-89200476D01*
X165861904Y-89248095D01*
X162004761Y-83614761D02*
X162147619Y-83662380D01*
X162385714Y-83662380D01*
X162480952Y-83614761D01*
X162528571Y-83567142D01*
X162576190Y-83471904D01*
X162576190Y-83376666D01*
X162528571Y-83281428D01*
X162480952Y-83233809D01*
X162385714Y-83186190D01*
X162195238Y-83138571D01*
X162100000Y-83090952D01*
X162052380Y-83043333D01*
X162004761Y-82948095D01*
X162004761Y-82852857D01*
X162052380Y-82757619D01*
X162100000Y-82710000D01*
X162195238Y-82662380D01*
X162433333Y-82662380D01*
X162576190Y-82710000D01*
X162909523Y-82662380D02*
X163147619Y-83662380D01*
X163338095Y-82948095D01*
X163528571Y-83662380D01*
X163766666Y-82662380D01*
X163909523Y-83757619D02*
X164671428Y-83757619D01*
X164861904Y-83614761D02*
X165004761Y-83662380D01*
X165242857Y-83662380D01*
X165338095Y-83614761D01*
X165385714Y-83567142D01*
X165433333Y-83471904D01*
X165433333Y-83376666D01*
X165385714Y-83281428D01*
X165338095Y-83233809D01*
X165242857Y-83186190D01*
X165052380Y-83138571D01*
X164957142Y-83090952D01*
X164909523Y-83043333D01*
X164861904Y-82948095D01*
X164861904Y-82852857D01*
X164909523Y-82757619D01*
X164957142Y-82710000D01*
X165052380Y-82662380D01*
X165290476Y-82662380D01*
X165433333Y-82710000D01*
X165861904Y-83662380D02*
X165861904Y-82662380D01*
X166242857Y-82662380D01*
X166338095Y-82710000D01*
X166385714Y-82757619D01*
X166433333Y-82852857D01*
X166433333Y-82995714D01*
X166385714Y-83090952D01*
X166338095Y-83138571D01*
X166242857Y-83186190D01*
X165861904Y-83186190D01*
X166861904Y-83662380D02*
X166861904Y-82662380D01*
X167100000Y-82662380D01*
X167242857Y-82710000D01*
X167338095Y-82805238D01*
X167385714Y-82900476D01*
X167433333Y-83090952D01*
X167433333Y-83233809D01*
X167385714Y-83424285D01*
X167338095Y-83519523D01*
X167242857Y-83614761D01*
X167100000Y-83662380D01*
X166861904Y-83662380D01*
X167719047Y-82662380D02*
X168290476Y-82662380D01*
X168004761Y-83662380D02*
X168004761Y-82662380D01*
%TO.C,J9*%
X84752380Y-81613333D02*
X85466666Y-81613333D01*
X85609523Y-81660952D01*
X85704761Y-81756190D01*
X85752380Y-81899047D01*
X85752380Y-81994285D01*
X85752380Y-81089523D02*
X85752380Y-80899047D01*
X85704761Y-80803809D01*
X85657142Y-80756190D01*
X85514285Y-80660952D01*
X85323809Y-80613333D01*
X84942857Y-80613333D01*
X84847619Y-80660952D01*
X84800000Y-80708571D01*
X84752380Y-80803809D01*
X84752380Y-80994285D01*
X84800000Y-81089523D01*
X84847619Y-81137142D01*
X84942857Y-81184761D01*
X85180952Y-81184761D01*
X85276190Y-81137142D01*
X85323809Y-81089523D01*
X85371428Y-80994285D01*
X85371428Y-80803809D01*
X85323809Y-80708571D01*
X85276190Y-80660952D01*
X85180952Y-80613333D01*
X85400000Y-84272380D02*
X85400000Y-83605714D01*
X85400000Y-83700952D02*
X85447619Y-83653333D01*
X85542857Y-83605714D01*
X85685714Y-83605714D01*
X85780952Y-83653333D01*
X85828571Y-83748571D01*
X85828571Y-84272380D01*
X85828571Y-83748571D02*
X85876190Y-83653333D01*
X85971428Y-83605714D01*
X86114285Y-83605714D01*
X86209523Y-83653333D01*
X86257142Y-83748571D01*
X86257142Y-84272380D01*
X86876190Y-84272380D02*
X86780952Y-84224761D01*
X86733333Y-84177142D01*
X86685714Y-84081904D01*
X86685714Y-83796190D01*
X86733333Y-83700952D01*
X86780952Y-83653333D01*
X86876190Y-83605714D01*
X87019047Y-83605714D01*
X87114285Y-83653333D01*
X87161904Y-83700952D01*
X87209523Y-83796190D01*
X87209523Y-84081904D01*
X87161904Y-84177142D01*
X87114285Y-84224761D01*
X87019047Y-84272380D01*
X86876190Y-84272380D01*
X87495238Y-83605714D02*
X87876190Y-83605714D01*
X87638095Y-83272380D02*
X87638095Y-84129523D01*
X87685714Y-84224761D01*
X87780952Y-84272380D01*
X87876190Y-84272380D01*
X88352380Y-84272380D02*
X88257142Y-84224761D01*
X88209523Y-84177142D01*
X88161904Y-84081904D01*
X88161904Y-83796190D01*
X88209523Y-83700952D01*
X88257142Y-83653333D01*
X88352380Y-83605714D01*
X88495238Y-83605714D01*
X88590476Y-83653333D01*
X88638095Y-83700952D01*
X88685714Y-83796190D01*
X88685714Y-84081904D01*
X88638095Y-84177142D01*
X88590476Y-84224761D01*
X88495238Y-84272380D01*
X88352380Y-84272380D01*
X89114285Y-84272380D02*
X89114285Y-83605714D01*
X89114285Y-83796190D02*
X89161904Y-83700952D01*
X89209523Y-83653333D01*
X89304761Y-83605714D01*
X89400000Y-83605714D01*
X89733333Y-83891428D02*
X90495238Y-83891428D01*
X91161904Y-83272380D02*
X91257142Y-83272380D01*
X91352380Y-83320000D01*
X91400000Y-83367619D01*
X91447619Y-83462857D01*
X91495238Y-83653333D01*
X91495238Y-83891428D01*
X91447619Y-84081904D01*
X91400000Y-84177142D01*
X91352380Y-84224761D01*
X91257142Y-84272380D01*
X91161904Y-84272380D01*
X91066666Y-84224761D01*
X91019047Y-84177142D01*
X90971428Y-84081904D01*
X90923809Y-83891428D01*
X90923809Y-83653333D01*
X90971428Y-83462857D01*
X91019047Y-83367619D01*
X91066666Y-83320000D01*
X91161904Y-83272380D01*
X92352380Y-83605714D02*
X92352380Y-84272380D01*
X92114285Y-83224761D02*
X91876190Y-83939047D01*
X92495238Y-83939047D01*
%TO.C,J10*%
X65702380Y-82089523D02*
X66416666Y-82089523D01*
X66559523Y-82137142D01*
X66654761Y-82232380D01*
X66702380Y-82375238D01*
X66702380Y-82470476D01*
X66702380Y-81089523D02*
X66702380Y-81660952D01*
X66702380Y-81375238D02*
X65702380Y-81375238D01*
X65845238Y-81470476D01*
X65940476Y-81565714D01*
X65988095Y-81660952D01*
X65702380Y-80470476D02*
X65702380Y-80375238D01*
X65750000Y-80280000D01*
X65797619Y-80232380D01*
X65892857Y-80184761D01*
X66083333Y-80137142D01*
X66321428Y-80137142D01*
X66511904Y-80184761D01*
X66607142Y-80232380D01*
X66654761Y-80280000D01*
X66702380Y-80375238D01*
X66702380Y-80470476D01*
X66654761Y-80565714D01*
X66607142Y-80613333D01*
X66511904Y-80660952D01*
X66321428Y-80708571D01*
X66083333Y-80708571D01*
X65892857Y-80660952D01*
X65797619Y-80613333D01*
X65750000Y-80565714D01*
X65702380Y-80470476D01*
X70160000Y-79192380D02*
X70160000Y-78525714D01*
X70160000Y-78620952D02*
X70207619Y-78573333D01*
X70302857Y-78525714D01*
X70445714Y-78525714D01*
X70540952Y-78573333D01*
X70588571Y-78668571D01*
X70588571Y-79192380D01*
X70588571Y-78668571D02*
X70636190Y-78573333D01*
X70731428Y-78525714D01*
X70874285Y-78525714D01*
X70969523Y-78573333D01*
X71017142Y-78668571D01*
X71017142Y-79192380D01*
X71636190Y-79192380D02*
X71540952Y-79144761D01*
X71493333Y-79097142D01*
X71445714Y-79001904D01*
X71445714Y-78716190D01*
X71493333Y-78620952D01*
X71540952Y-78573333D01*
X71636190Y-78525714D01*
X71779047Y-78525714D01*
X71874285Y-78573333D01*
X71921904Y-78620952D01*
X71969523Y-78716190D01*
X71969523Y-79001904D01*
X71921904Y-79097142D01*
X71874285Y-79144761D01*
X71779047Y-79192380D01*
X71636190Y-79192380D01*
X72255238Y-78525714D02*
X72636190Y-78525714D01*
X72398095Y-78192380D02*
X72398095Y-79049523D01*
X72445714Y-79144761D01*
X72540952Y-79192380D01*
X72636190Y-79192380D01*
X73112380Y-79192380D02*
X73017142Y-79144761D01*
X72969523Y-79097142D01*
X72921904Y-79001904D01*
X72921904Y-78716190D01*
X72969523Y-78620952D01*
X73017142Y-78573333D01*
X73112380Y-78525714D01*
X73255238Y-78525714D01*
X73350476Y-78573333D01*
X73398095Y-78620952D01*
X73445714Y-78716190D01*
X73445714Y-79001904D01*
X73398095Y-79097142D01*
X73350476Y-79144761D01*
X73255238Y-79192380D01*
X73112380Y-79192380D01*
X73874285Y-79192380D02*
X73874285Y-78525714D01*
X73874285Y-78716190D02*
X73921904Y-78620952D01*
X73969523Y-78573333D01*
X74064761Y-78525714D01*
X74160000Y-78525714D01*
X74493333Y-78811428D02*
X75255238Y-78811428D01*
X75921904Y-78192380D02*
X76017142Y-78192380D01*
X76112380Y-78240000D01*
X76160000Y-78287619D01*
X76207619Y-78382857D01*
X76255238Y-78573333D01*
X76255238Y-78811428D01*
X76207619Y-79001904D01*
X76160000Y-79097142D01*
X76112380Y-79144761D01*
X76017142Y-79192380D01*
X75921904Y-79192380D01*
X75826666Y-79144761D01*
X75779047Y-79097142D01*
X75731428Y-79001904D01*
X75683809Y-78811428D01*
X75683809Y-78573333D01*
X75731428Y-78382857D01*
X75779047Y-78287619D01*
X75826666Y-78240000D01*
X75921904Y-78192380D01*
X77160000Y-78192380D02*
X76683809Y-78192380D01*
X76636190Y-78668571D01*
X76683809Y-78620952D01*
X76779047Y-78573333D01*
X77017142Y-78573333D01*
X77112380Y-78620952D01*
X77160000Y-78668571D01*
X77207619Y-78763809D01*
X77207619Y-79001904D01*
X77160000Y-79097142D01*
X77112380Y-79144761D01*
X77017142Y-79192380D01*
X76779047Y-79192380D01*
X76683809Y-79144761D01*
X76636190Y-79097142D01*
%TO.C,J2*%
X143182380Y-89258333D02*
X143896666Y-89258333D01*
X144039523Y-89305952D01*
X144134761Y-89401190D01*
X144182380Y-89544047D01*
X144182380Y-89639285D01*
X143277619Y-88829761D02*
X143230000Y-88782142D01*
X143182380Y-88686904D01*
X143182380Y-88448809D01*
X143230000Y-88353571D01*
X143277619Y-88305952D01*
X143372857Y-88258333D01*
X143468095Y-88258333D01*
X143610952Y-88305952D01*
X144182380Y-88877380D01*
X144182380Y-88258333D01*
X130974761Y-92139285D02*
X131022380Y-92044047D01*
X131022380Y-91853571D01*
X130974761Y-91758333D01*
X130879523Y-91710714D01*
X130831904Y-91710714D01*
X130736666Y-91758333D01*
X130689047Y-91853571D01*
X130689047Y-91996428D01*
X130641428Y-92091666D01*
X130546190Y-92139285D01*
X130498571Y-92139285D01*
X130403333Y-92091666D01*
X130355714Y-91996428D01*
X130355714Y-91853571D01*
X130403333Y-91758333D01*
X130974761Y-90901190D02*
X131022380Y-90996428D01*
X131022380Y-91186904D01*
X130974761Y-91282142D01*
X130879523Y-91329761D01*
X130498571Y-91329761D01*
X130403333Y-91282142D01*
X130355714Y-91186904D01*
X130355714Y-90996428D01*
X130403333Y-90901190D01*
X130498571Y-90853571D01*
X130593809Y-90853571D01*
X130689047Y-91329761D01*
X130355714Y-90425000D02*
X131022380Y-90425000D01*
X130450952Y-90425000D02*
X130403333Y-90377380D01*
X130355714Y-90282142D01*
X130355714Y-90139285D01*
X130403333Y-90044047D01*
X130498571Y-89996428D01*
X131022380Y-89996428D01*
X130974761Y-89567857D02*
X131022380Y-89472619D01*
X131022380Y-89282142D01*
X130974761Y-89186904D01*
X130879523Y-89139285D01*
X130831904Y-89139285D01*
X130736666Y-89186904D01*
X130689047Y-89282142D01*
X130689047Y-89425000D01*
X130641428Y-89520238D01*
X130546190Y-89567857D01*
X130498571Y-89567857D01*
X130403333Y-89520238D01*
X130355714Y-89425000D01*
X130355714Y-89282142D01*
X130403333Y-89186904D01*
X131022380Y-88567857D02*
X130974761Y-88663095D01*
X130927142Y-88710714D01*
X130831904Y-88758333D01*
X130546190Y-88758333D01*
X130450952Y-88710714D01*
X130403333Y-88663095D01*
X130355714Y-88567857D01*
X130355714Y-88425000D01*
X130403333Y-88329761D01*
X130450952Y-88282142D01*
X130546190Y-88234523D01*
X130831904Y-88234523D01*
X130927142Y-88282142D01*
X130974761Y-88329761D01*
X131022380Y-88425000D01*
X131022380Y-88567857D01*
X131022380Y-87805952D02*
X130355714Y-87805952D01*
X130546190Y-87805952D02*
X130450952Y-87758333D01*
X130403333Y-87710714D01*
X130355714Y-87615476D01*
X130355714Y-87520238D01*
X130022380Y-86996428D02*
X130022380Y-86901190D01*
X130070000Y-86805952D01*
X130117619Y-86758333D01*
X130212857Y-86710714D01*
X130403333Y-86663095D01*
X130641428Y-86663095D01*
X130831904Y-86710714D01*
X130927142Y-86758333D01*
X130974761Y-86805952D01*
X131022380Y-86901190D01*
X131022380Y-86996428D01*
X130974761Y-87091666D01*
X130927142Y-87139285D01*
X130831904Y-87186904D01*
X130641428Y-87234523D01*
X130403333Y-87234523D01*
X130212857Y-87186904D01*
X130117619Y-87139285D01*
X130070000Y-87091666D01*
X130022380Y-86996428D01*
X130117619Y-86282142D02*
X130070000Y-86234523D01*
X130022380Y-86139285D01*
X130022380Y-85901190D01*
X130070000Y-85805952D01*
X130117619Y-85758333D01*
X130212857Y-85710714D01*
X130308095Y-85710714D01*
X130450952Y-85758333D01*
X131022380Y-86329761D01*
X131022380Y-85710714D01*
%TO.C,J5*%
X130042380Y-73968333D02*
X130756666Y-73968333D01*
X130899523Y-74015952D01*
X130994761Y-74111190D01*
X131042380Y-74254047D01*
X131042380Y-74349285D01*
X130042380Y-73015952D02*
X130042380Y-73492142D01*
X130518571Y-73539761D01*
X130470952Y-73492142D01*
X130423333Y-73396904D01*
X130423333Y-73158809D01*
X130470952Y-73063571D01*
X130518571Y-73015952D01*
X130613809Y-72968333D01*
X130851904Y-72968333D01*
X130947142Y-73015952D01*
X130994761Y-73063571D01*
X131042380Y-73158809D01*
X131042380Y-73396904D01*
X130994761Y-73492142D01*
X130947142Y-73539761D01*
X144154761Y-77492142D02*
X144202380Y-77349285D01*
X144202380Y-77111190D01*
X144154761Y-77015952D01*
X144107142Y-76968333D01*
X144011904Y-76920714D01*
X143916666Y-76920714D01*
X143821428Y-76968333D01*
X143773809Y-77015952D01*
X143726190Y-77111190D01*
X143678571Y-77301666D01*
X143630952Y-77396904D01*
X143583333Y-77444523D01*
X143488095Y-77492142D01*
X143392857Y-77492142D01*
X143297619Y-77444523D01*
X143250000Y-77396904D01*
X143202380Y-77301666D01*
X143202380Y-77063571D01*
X143250000Y-76920714D01*
X144154761Y-76111190D02*
X144202380Y-76206428D01*
X144202380Y-76396904D01*
X144154761Y-76492142D01*
X144059523Y-76539761D01*
X143678571Y-76539761D01*
X143583333Y-76492142D01*
X143535714Y-76396904D01*
X143535714Y-76206428D01*
X143583333Y-76111190D01*
X143678571Y-76063571D01*
X143773809Y-76063571D01*
X143869047Y-76539761D01*
X144202380Y-75635000D02*
X143535714Y-75635000D01*
X143726190Y-75635000D02*
X143630952Y-75587380D01*
X143583333Y-75539761D01*
X143535714Y-75444523D01*
X143535714Y-75349285D01*
X143535714Y-75111190D02*
X144202380Y-74873095D01*
X143535714Y-74635000D01*
X144202380Y-74111190D02*
X144154761Y-74206428D01*
X144107142Y-74254047D01*
X144011904Y-74301666D01*
X143726190Y-74301666D01*
X143630952Y-74254047D01*
X143583333Y-74206428D01*
X143535714Y-74111190D01*
X143535714Y-73968333D01*
X143583333Y-73873095D01*
X143630952Y-73825476D01*
X143726190Y-73777857D01*
X144011904Y-73777857D01*
X144107142Y-73825476D01*
X144154761Y-73873095D01*
X144202380Y-73968333D01*
X144202380Y-74111190D01*
X144154761Y-73396904D02*
X144202380Y-73301666D01*
X144202380Y-73111190D01*
X144154761Y-73015952D01*
X144059523Y-72968333D01*
X144011904Y-72968333D01*
X143916666Y-73015952D01*
X143869047Y-73111190D01*
X143869047Y-73254047D01*
X143821428Y-73349285D01*
X143726190Y-73396904D01*
X143678571Y-73396904D01*
X143583333Y-73349285D01*
X143535714Y-73254047D01*
X143535714Y-73111190D01*
X143583333Y-73015952D01*
X144202380Y-71777857D02*
X143202380Y-71777857D01*
X143297619Y-71349285D02*
X143250000Y-71301666D01*
X143202380Y-71206428D01*
X143202380Y-70968333D01*
X143250000Y-70873095D01*
X143297619Y-70825476D01*
X143392857Y-70777857D01*
X143488095Y-70777857D01*
X143630952Y-70825476D01*
X144202380Y-71396904D01*
X144202380Y-70777857D01*
X144107142Y-69777857D02*
X144154761Y-69825476D01*
X144202380Y-69968333D01*
X144202380Y-70063571D01*
X144154761Y-70206428D01*
X144059523Y-70301666D01*
X143964285Y-70349285D01*
X143773809Y-70396904D01*
X143630952Y-70396904D01*
X143440476Y-70349285D01*
X143345238Y-70301666D01*
X143250000Y-70206428D01*
X143202380Y-70063571D01*
X143202380Y-69968333D01*
X143250000Y-69825476D01*
X143297619Y-69777857D01*
%TO.C,J15*%
X164400476Y-103592380D02*
X164400476Y-104306666D01*
X164352857Y-104449523D01*
X164257619Y-104544761D01*
X164114761Y-104592380D01*
X164019523Y-104592380D01*
X165400476Y-104592380D02*
X164829047Y-104592380D01*
X165114761Y-104592380D02*
X165114761Y-103592380D01*
X165019523Y-103735238D01*
X164924285Y-103830476D01*
X164829047Y-103878095D01*
X166305238Y-103592380D02*
X165829047Y-103592380D01*
X165781428Y-104068571D01*
X165829047Y-104020952D01*
X165924285Y-103973333D01*
X166162380Y-103973333D01*
X166257619Y-104020952D01*
X166305238Y-104068571D01*
X166352857Y-104163809D01*
X166352857Y-104401904D01*
X166305238Y-104497142D01*
X166257619Y-104544761D01*
X166162380Y-104592380D01*
X165924285Y-104592380D01*
X165829047Y-104544761D01*
X165781428Y-104497142D01*
X156280000Y-104462380D02*
X156280000Y-103462380D01*
X156518095Y-103462380D01*
X156660952Y-103510000D01*
X156756190Y-103605238D01*
X156803809Y-103700476D01*
X156851428Y-103890952D01*
X156851428Y-104033809D01*
X156803809Y-104224285D01*
X156756190Y-104319523D01*
X156660952Y-104414761D01*
X156518095Y-104462380D01*
X156280000Y-104462380D01*
X157280000Y-104462380D02*
X157280000Y-103795714D01*
X157280000Y-103986190D02*
X157327619Y-103890952D01*
X157375238Y-103843333D01*
X157470476Y-103795714D01*
X157565714Y-103795714D01*
X157899047Y-104462380D02*
X157899047Y-103795714D01*
X157899047Y-103462380D02*
X157851428Y-103510000D01*
X157899047Y-103557619D01*
X157946666Y-103510000D01*
X157899047Y-103462380D01*
X157899047Y-103557619D01*
X158280000Y-103795714D02*
X158518095Y-104462380D01*
X158756190Y-103795714D01*
X159518095Y-104414761D02*
X159422857Y-104462380D01*
X159232380Y-104462380D01*
X159137142Y-104414761D01*
X159089523Y-104319523D01*
X159089523Y-103938571D01*
X159137142Y-103843333D01*
X159232380Y-103795714D01*
X159422857Y-103795714D01*
X159518095Y-103843333D01*
X159565714Y-103938571D01*
X159565714Y-104033809D01*
X159089523Y-104129047D01*
X159994285Y-104462380D02*
X159994285Y-103795714D01*
X159994285Y-103986190D02*
X160041904Y-103890952D01*
X160089523Y-103843333D01*
X160184761Y-103795714D01*
X160280000Y-103795714D01*
X160613333Y-104081428D02*
X161375238Y-104081428D01*
X162041904Y-103462380D02*
X162137142Y-103462380D01*
X162232380Y-103510000D01*
X162280000Y-103557619D01*
X162327619Y-103652857D01*
X162375238Y-103843333D01*
X162375238Y-104081428D01*
X162327619Y-104271904D01*
X162280000Y-104367142D01*
X162232380Y-104414761D01*
X162137142Y-104462380D01*
X162041904Y-104462380D01*
X161946666Y-104414761D01*
X161899047Y-104367142D01*
X161851428Y-104271904D01*
X161803809Y-104081428D01*
X161803809Y-103843333D01*
X161851428Y-103652857D01*
X161899047Y-103557619D01*
X161946666Y-103510000D01*
X162041904Y-103462380D01*
X163280000Y-103462380D02*
X162803809Y-103462380D01*
X162756190Y-103938571D01*
X162803809Y-103890952D01*
X162899047Y-103843333D01*
X163137142Y-103843333D01*
X163232380Y-103890952D01*
X163280000Y-103938571D01*
X163327619Y-104033809D01*
X163327619Y-104271904D01*
X163280000Y-104367142D01*
X163232380Y-104414761D01*
X163137142Y-104462380D01*
X162899047Y-104462380D01*
X162803809Y-104414761D01*
X162756190Y-104367142D01*
%TO.C,J1*%
X143182380Y-81638333D02*
X143896666Y-81638333D01*
X144039523Y-81685952D01*
X144134761Y-81781190D01*
X144182380Y-81924047D01*
X144182380Y-82019285D01*
X144182380Y-80638333D02*
X144182380Y-81209761D01*
X144182380Y-80924047D02*
X143182380Y-80924047D01*
X143325238Y-81019285D01*
X143420476Y-81114523D01*
X143468095Y-81209761D01*
X130974761Y-84519285D02*
X131022380Y-84424047D01*
X131022380Y-84233571D01*
X130974761Y-84138333D01*
X130879523Y-84090714D01*
X130831904Y-84090714D01*
X130736666Y-84138333D01*
X130689047Y-84233571D01*
X130689047Y-84376428D01*
X130641428Y-84471666D01*
X130546190Y-84519285D01*
X130498571Y-84519285D01*
X130403333Y-84471666D01*
X130355714Y-84376428D01*
X130355714Y-84233571D01*
X130403333Y-84138333D01*
X130974761Y-83281190D02*
X131022380Y-83376428D01*
X131022380Y-83566904D01*
X130974761Y-83662142D01*
X130879523Y-83709761D01*
X130498571Y-83709761D01*
X130403333Y-83662142D01*
X130355714Y-83566904D01*
X130355714Y-83376428D01*
X130403333Y-83281190D01*
X130498571Y-83233571D01*
X130593809Y-83233571D01*
X130689047Y-83709761D01*
X130355714Y-82805000D02*
X131022380Y-82805000D01*
X130450952Y-82805000D02*
X130403333Y-82757380D01*
X130355714Y-82662142D01*
X130355714Y-82519285D01*
X130403333Y-82424047D01*
X130498571Y-82376428D01*
X131022380Y-82376428D01*
X130974761Y-81947857D02*
X131022380Y-81852619D01*
X131022380Y-81662142D01*
X130974761Y-81566904D01*
X130879523Y-81519285D01*
X130831904Y-81519285D01*
X130736666Y-81566904D01*
X130689047Y-81662142D01*
X130689047Y-81805000D01*
X130641428Y-81900238D01*
X130546190Y-81947857D01*
X130498571Y-81947857D01*
X130403333Y-81900238D01*
X130355714Y-81805000D01*
X130355714Y-81662142D01*
X130403333Y-81566904D01*
X131022380Y-80947857D02*
X130974761Y-81043095D01*
X130927142Y-81090714D01*
X130831904Y-81138333D01*
X130546190Y-81138333D01*
X130450952Y-81090714D01*
X130403333Y-81043095D01*
X130355714Y-80947857D01*
X130355714Y-80805000D01*
X130403333Y-80709761D01*
X130450952Y-80662142D01*
X130546190Y-80614523D01*
X130831904Y-80614523D01*
X130927142Y-80662142D01*
X130974761Y-80709761D01*
X131022380Y-80805000D01*
X131022380Y-80947857D01*
X131022380Y-80185952D02*
X130355714Y-80185952D01*
X130546190Y-80185952D02*
X130450952Y-80138333D01*
X130403333Y-80090714D01*
X130355714Y-79995476D01*
X130355714Y-79900238D01*
X130022380Y-79376428D02*
X130022380Y-79281190D01*
X130070000Y-79185952D01*
X130117619Y-79138333D01*
X130212857Y-79090714D01*
X130403333Y-79043095D01*
X130641428Y-79043095D01*
X130831904Y-79090714D01*
X130927142Y-79138333D01*
X130974761Y-79185952D01*
X131022380Y-79281190D01*
X131022380Y-79376428D01*
X130974761Y-79471666D01*
X130927142Y-79519285D01*
X130831904Y-79566904D01*
X130641428Y-79614523D01*
X130403333Y-79614523D01*
X130212857Y-79566904D01*
X130117619Y-79519285D01*
X130070000Y-79471666D01*
X130022380Y-79376428D01*
X131022380Y-78090714D02*
X131022380Y-78662142D01*
X131022380Y-78376428D02*
X130022380Y-78376428D01*
X130165238Y-78471666D01*
X130260476Y-78566904D01*
X130308095Y-78662142D01*
%TO.C,J7*%
X84752380Y-76533333D02*
X85466666Y-76533333D01*
X85609523Y-76580952D01*
X85704761Y-76676190D01*
X85752380Y-76819047D01*
X85752380Y-76914285D01*
X84752380Y-76152380D02*
X84752380Y-75485714D01*
X85752380Y-75914285D01*
X85400000Y-79192380D02*
X85400000Y-78525714D01*
X85400000Y-78620952D02*
X85447619Y-78573333D01*
X85542857Y-78525714D01*
X85685714Y-78525714D01*
X85780952Y-78573333D01*
X85828571Y-78668571D01*
X85828571Y-79192380D01*
X85828571Y-78668571D02*
X85876190Y-78573333D01*
X85971428Y-78525714D01*
X86114285Y-78525714D01*
X86209523Y-78573333D01*
X86257142Y-78668571D01*
X86257142Y-79192380D01*
X86876190Y-79192380D02*
X86780952Y-79144761D01*
X86733333Y-79097142D01*
X86685714Y-79001904D01*
X86685714Y-78716190D01*
X86733333Y-78620952D01*
X86780952Y-78573333D01*
X86876190Y-78525714D01*
X87019047Y-78525714D01*
X87114285Y-78573333D01*
X87161904Y-78620952D01*
X87209523Y-78716190D01*
X87209523Y-79001904D01*
X87161904Y-79097142D01*
X87114285Y-79144761D01*
X87019047Y-79192380D01*
X86876190Y-79192380D01*
X87495238Y-78525714D02*
X87876190Y-78525714D01*
X87638095Y-78192380D02*
X87638095Y-79049523D01*
X87685714Y-79144761D01*
X87780952Y-79192380D01*
X87876190Y-79192380D01*
X88352380Y-79192380D02*
X88257142Y-79144761D01*
X88209523Y-79097142D01*
X88161904Y-79001904D01*
X88161904Y-78716190D01*
X88209523Y-78620952D01*
X88257142Y-78573333D01*
X88352380Y-78525714D01*
X88495238Y-78525714D01*
X88590476Y-78573333D01*
X88638095Y-78620952D01*
X88685714Y-78716190D01*
X88685714Y-79001904D01*
X88638095Y-79097142D01*
X88590476Y-79144761D01*
X88495238Y-79192380D01*
X88352380Y-79192380D01*
X89114285Y-79192380D02*
X89114285Y-78525714D01*
X89114285Y-78716190D02*
X89161904Y-78620952D01*
X89209523Y-78573333D01*
X89304761Y-78525714D01*
X89400000Y-78525714D01*
X89733333Y-78811428D02*
X90495238Y-78811428D01*
X91161904Y-78192380D02*
X91257142Y-78192380D01*
X91352380Y-78240000D01*
X91400000Y-78287619D01*
X91447619Y-78382857D01*
X91495238Y-78573333D01*
X91495238Y-78811428D01*
X91447619Y-79001904D01*
X91400000Y-79097142D01*
X91352380Y-79144761D01*
X91257142Y-79192380D01*
X91161904Y-79192380D01*
X91066666Y-79144761D01*
X91019047Y-79097142D01*
X90971428Y-79001904D01*
X90923809Y-78811428D01*
X90923809Y-78573333D01*
X90971428Y-78382857D01*
X91019047Y-78287619D01*
X91066666Y-78240000D01*
X91161904Y-78192380D01*
X91876190Y-78287619D02*
X91923809Y-78240000D01*
X92019047Y-78192380D01*
X92257142Y-78192380D01*
X92352380Y-78240000D01*
X92400000Y-78287619D01*
X92447619Y-78382857D01*
X92447619Y-78478095D01*
X92400000Y-78620952D01*
X91828571Y-79192380D01*
X92447619Y-79192380D01*
%TO.C,J12*%
X189800476Y-103592380D02*
X189800476Y-104306666D01*
X189752857Y-104449523D01*
X189657619Y-104544761D01*
X189514761Y-104592380D01*
X189419523Y-104592380D01*
X190800476Y-104592380D02*
X190229047Y-104592380D01*
X190514761Y-104592380D02*
X190514761Y-103592380D01*
X190419523Y-103735238D01*
X190324285Y-103830476D01*
X190229047Y-103878095D01*
X191181428Y-103687619D02*
X191229047Y-103640000D01*
X191324285Y-103592380D01*
X191562380Y-103592380D01*
X191657619Y-103640000D01*
X191705238Y-103687619D01*
X191752857Y-103782857D01*
X191752857Y-103878095D01*
X191705238Y-104020952D01*
X191133809Y-104592380D01*
X191752857Y-104592380D01*
X181680000Y-104462380D02*
X181680000Y-103462380D01*
X181918095Y-103462380D01*
X182060952Y-103510000D01*
X182156190Y-103605238D01*
X182203809Y-103700476D01*
X182251428Y-103890952D01*
X182251428Y-104033809D01*
X182203809Y-104224285D01*
X182156190Y-104319523D01*
X182060952Y-104414761D01*
X181918095Y-104462380D01*
X181680000Y-104462380D01*
X182680000Y-104462380D02*
X182680000Y-103795714D01*
X182680000Y-103986190D02*
X182727619Y-103890952D01*
X182775238Y-103843333D01*
X182870476Y-103795714D01*
X182965714Y-103795714D01*
X183299047Y-104462380D02*
X183299047Y-103795714D01*
X183299047Y-103462380D02*
X183251428Y-103510000D01*
X183299047Y-103557619D01*
X183346666Y-103510000D01*
X183299047Y-103462380D01*
X183299047Y-103557619D01*
X183680000Y-103795714D02*
X183918095Y-104462380D01*
X184156190Y-103795714D01*
X184918095Y-104414761D02*
X184822857Y-104462380D01*
X184632380Y-104462380D01*
X184537142Y-104414761D01*
X184489523Y-104319523D01*
X184489523Y-103938571D01*
X184537142Y-103843333D01*
X184632380Y-103795714D01*
X184822857Y-103795714D01*
X184918095Y-103843333D01*
X184965714Y-103938571D01*
X184965714Y-104033809D01*
X184489523Y-104129047D01*
X185394285Y-104462380D02*
X185394285Y-103795714D01*
X185394285Y-103986190D02*
X185441904Y-103890952D01*
X185489523Y-103843333D01*
X185584761Y-103795714D01*
X185680000Y-103795714D01*
X186013333Y-104081428D02*
X186775238Y-104081428D01*
X187441904Y-103462380D02*
X187537142Y-103462380D01*
X187632380Y-103510000D01*
X187680000Y-103557619D01*
X187727619Y-103652857D01*
X187775238Y-103843333D01*
X187775238Y-104081428D01*
X187727619Y-104271904D01*
X187680000Y-104367142D01*
X187632380Y-104414761D01*
X187537142Y-104462380D01*
X187441904Y-104462380D01*
X187346666Y-104414761D01*
X187299047Y-104367142D01*
X187251428Y-104271904D01*
X187203809Y-104081428D01*
X187203809Y-103843333D01*
X187251428Y-103652857D01*
X187299047Y-103557619D01*
X187346666Y-103510000D01*
X187441904Y-103462380D01*
X188156190Y-103557619D02*
X188203809Y-103510000D01*
X188299047Y-103462380D01*
X188537142Y-103462380D01*
X188632380Y-103510000D01*
X188680000Y-103557619D01*
X188727619Y-103652857D01*
X188727619Y-103748095D01*
X188680000Y-103890952D01*
X188108571Y-104462380D01*
X188727619Y-104462380D01*
%TO.C,J3*%
X143182380Y-96878333D02*
X143896666Y-96878333D01*
X144039523Y-96925952D01*
X144134761Y-97021190D01*
X144182380Y-97164047D01*
X144182380Y-97259285D01*
X143182380Y-96497380D02*
X143182380Y-95878333D01*
X143563333Y-96211666D01*
X143563333Y-96068809D01*
X143610952Y-95973571D01*
X143658571Y-95925952D01*
X143753809Y-95878333D01*
X143991904Y-95878333D01*
X144087142Y-95925952D01*
X144134761Y-95973571D01*
X144182380Y-96068809D01*
X144182380Y-96354523D01*
X144134761Y-96449761D01*
X144087142Y-96497380D01*
X130974761Y-99759285D02*
X131022380Y-99664047D01*
X131022380Y-99473571D01*
X130974761Y-99378333D01*
X130879523Y-99330714D01*
X130831904Y-99330714D01*
X130736666Y-99378333D01*
X130689047Y-99473571D01*
X130689047Y-99616428D01*
X130641428Y-99711666D01*
X130546190Y-99759285D01*
X130498571Y-99759285D01*
X130403333Y-99711666D01*
X130355714Y-99616428D01*
X130355714Y-99473571D01*
X130403333Y-99378333D01*
X130974761Y-98521190D02*
X131022380Y-98616428D01*
X131022380Y-98806904D01*
X130974761Y-98902142D01*
X130879523Y-98949761D01*
X130498571Y-98949761D01*
X130403333Y-98902142D01*
X130355714Y-98806904D01*
X130355714Y-98616428D01*
X130403333Y-98521190D01*
X130498571Y-98473571D01*
X130593809Y-98473571D01*
X130689047Y-98949761D01*
X130355714Y-98045000D02*
X131022380Y-98045000D01*
X130450952Y-98045000D02*
X130403333Y-97997380D01*
X130355714Y-97902142D01*
X130355714Y-97759285D01*
X130403333Y-97664047D01*
X130498571Y-97616428D01*
X131022380Y-97616428D01*
X130974761Y-97187857D02*
X131022380Y-97092619D01*
X131022380Y-96902142D01*
X130974761Y-96806904D01*
X130879523Y-96759285D01*
X130831904Y-96759285D01*
X130736666Y-96806904D01*
X130689047Y-96902142D01*
X130689047Y-97045000D01*
X130641428Y-97140238D01*
X130546190Y-97187857D01*
X130498571Y-97187857D01*
X130403333Y-97140238D01*
X130355714Y-97045000D01*
X130355714Y-96902142D01*
X130403333Y-96806904D01*
X131022380Y-96187857D02*
X130974761Y-96283095D01*
X130927142Y-96330714D01*
X130831904Y-96378333D01*
X130546190Y-96378333D01*
X130450952Y-96330714D01*
X130403333Y-96283095D01*
X130355714Y-96187857D01*
X130355714Y-96045000D01*
X130403333Y-95949761D01*
X130450952Y-95902142D01*
X130546190Y-95854523D01*
X130831904Y-95854523D01*
X130927142Y-95902142D01*
X130974761Y-95949761D01*
X131022380Y-96045000D01*
X131022380Y-96187857D01*
X131022380Y-95425952D02*
X130355714Y-95425952D01*
X130546190Y-95425952D02*
X130450952Y-95378333D01*
X130403333Y-95330714D01*
X130355714Y-95235476D01*
X130355714Y-95140238D01*
X130022380Y-94616428D02*
X130022380Y-94521190D01*
X130070000Y-94425952D01*
X130117619Y-94378333D01*
X130212857Y-94330714D01*
X130403333Y-94283095D01*
X130641428Y-94283095D01*
X130831904Y-94330714D01*
X130927142Y-94378333D01*
X130974761Y-94425952D01*
X131022380Y-94521190D01*
X131022380Y-94616428D01*
X130974761Y-94711666D01*
X130927142Y-94759285D01*
X130831904Y-94806904D01*
X130641428Y-94854523D01*
X130403333Y-94854523D01*
X130212857Y-94806904D01*
X130117619Y-94759285D01*
X130070000Y-94711666D01*
X130022380Y-94616428D01*
X130022380Y-93949761D02*
X130022380Y-93330714D01*
X130403333Y-93664047D01*
X130403333Y-93521190D01*
X130450952Y-93425952D01*
X130498571Y-93378333D01*
X130593809Y-93330714D01*
X130831904Y-93330714D01*
X130927142Y-93378333D01*
X130974761Y-93425952D01*
X131022380Y-93521190D01*
X131022380Y-93806904D01*
X130974761Y-93902142D01*
X130927142Y-93949761D01*
%TO.C,J16*%
X182112380Y-77009523D02*
X182826666Y-77009523D01*
X182969523Y-77057142D01*
X183064761Y-77152380D01*
X183112380Y-77295238D01*
X183112380Y-77390476D01*
X183112380Y-76009523D02*
X183112380Y-76580952D01*
X183112380Y-76295238D02*
X182112380Y-76295238D01*
X182255238Y-76390476D01*
X182350476Y-76485714D01*
X182398095Y-76580952D01*
X182112380Y-75152380D02*
X182112380Y-75342857D01*
X182160000Y-75438095D01*
X182207619Y-75485714D01*
X182350476Y-75580952D01*
X182540952Y-75628571D01*
X182921904Y-75628571D01*
X183017142Y-75580952D01*
X183064761Y-75533333D01*
X183112380Y-75438095D01*
X183112380Y-75247619D01*
X183064761Y-75152380D01*
X183017142Y-75104761D01*
X182921904Y-75057142D01*
X182683809Y-75057142D01*
X182588571Y-75104761D01*
X182540952Y-75152380D01*
X182493333Y-75247619D01*
X182493333Y-75438095D01*
X182540952Y-75533333D01*
X182588571Y-75580952D01*
X182683809Y-75628571D01*
%TO.C,J21*%
X123282380Y-72549523D02*
X123996666Y-72549523D01*
X124139523Y-72597142D01*
X124234761Y-72692380D01*
X124282380Y-72835238D01*
X124282380Y-72930476D01*
X123377619Y-72120952D02*
X123330000Y-72073333D01*
X123282380Y-71978095D01*
X123282380Y-71740000D01*
X123330000Y-71644761D01*
X123377619Y-71597142D01*
X123472857Y-71549523D01*
X123568095Y-71549523D01*
X123710952Y-71597142D01*
X124282380Y-72168571D01*
X124282380Y-71549523D01*
X124282380Y-70597142D02*
X124282380Y-71168571D01*
X124282380Y-70882857D02*
X123282380Y-70882857D01*
X123425238Y-70978095D01*
X123520476Y-71073333D01*
X123568095Y-71168571D01*
X108542380Y-79463809D02*
X108542380Y-79940000D01*
X109018571Y-79987619D01*
X108970952Y-79940000D01*
X108923333Y-79844761D01*
X108923333Y-79606666D01*
X108970952Y-79511428D01*
X109018571Y-79463809D01*
X109113809Y-79416190D01*
X109351904Y-79416190D01*
X109447142Y-79463809D01*
X109494761Y-79511428D01*
X109542380Y-79606666D01*
X109542380Y-79844761D01*
X109494761Y-79940000D01*
X109447142Y-79987619D01*
X108542380Y-79130476D02*
X109542380Y-78797142D01*
X108542380Y-78463809D01*
X108542380Y-77178095D02*
X108542380Y-76987619D01*
X108590000Y-76892380D01*
X108685238Y-76797142D01*
X108875714Y-76749523D01*
X109209047Y-76749523D01*
X109399523Y-76797142D01*
X109494761Y-76892380D01*
X109542380Y-76987619D01*
X109542380Y-77178095D01*
X109494761Y-77273333D01*
X109399523Y-77368571D01*
X109209047Y-77416190D01*
X108875714Y-77416190D01*
X108685238Y-77368571D01*
X108590000Y-77273333D01*
X108542380Y-77178095D01*
X108875714Y-75892380D02*
X109542380Y-75892380D01*
X108875714Y-76320952D02*
X109399523Y-76320952D01*
X109494761Y-76273333D01*
X109542380Y-76178095D01*
X109542380Y-76035238D01*
X109494761Y-75940000D01*
X109447142Y-75892380D01*
X108875714Y-75559047D02*
X108875714Y-75178095D01*
X108542380Y-75416190D02*
X109399523Y-75416190D01*
X109494761Y-75368571D01*
X109542380Y-75273333D01*
X109542380Y-75178095D01*
X108875714Y-74844761D02*
X109875714Y-74844761D01*
X108923333Y-74844761D02*
X108875714Y-74749523D01*
X108875714Y-74559047D01*
X108923333Y-74463809D01*
X108970952Y-74416190D01*
X109066190Y-74368571D01*
X109351904Y-74368571D01*
X109447142Y-74416190D01*
X109494761Y-74463809D01*
X109542380Y-74559047D01*
X109542380Y-74749523D01*
X109494761Y-74844761D01*
X108875714Y-73511428D02*
X109542380Y-73511428D01*
X108875714Y-73940000D02*
X109399523Y-73940000D01*
X109494761Y-73892380D01*
X109542380Y-73797142D01*
X109542380Y-73654285D01*
X109494761Y-73559047D01*
X109447142Y-73511428D01*
X108875714Y-73178095D02*
X108875714Y-72797142D01*
X108542380Y-73035238D02*
X109399523Y-73035238D01*
X109494761Y-72987619D01*
X109542380Y-72892380D01*
X109542380Y-72797142D01*
%TO.C,J4*%
X143182380Y-104498333D02*
X143896666Y-104498333D01*
X144039523Y-104545952D01*
X144134761Y-104641190D01*
X144182380Y-104784047D01*
X144182380Y-104879285D01*
X143515714Y-103593571D02*
X144182380Y-103593571D01*
X143134761Y-103831666D02*
X143849047Y-104069761D01*
X143849047Y-103450714D01*
X130974761Y-107379285D02*
X131022380Y-107284047D01*
X131022380Y-107093571D01*
X130974761Y-106998333D01*
X130879523Y-106950714D01*
X130831904Y-106950714D01*
X130736666Y-106998333D01*
X130689047Y-107093571D01*
X130689047Y-107236428D01*
X130641428Y-107331666D01*
X130546190Y-107379285D01*
X130498571Y-107379285D01*
X130403333Y-107331666D01*
X130355714Y-107236428D01*
X130355714Y-107093571D01*
X130403333Y-106998333D01*
X130974761Y-106141190D02*
X131022380Y-106236428D01*
X131022380Y-106426904D01*
X130974761Y-106522142D01*
X130879523Y-106569761D01*
X130498571Y-106569761D01*
X130403333Y-106522142D01*
X130355714Y-106426904D01*
X130355714Y-106236428D01*
X130403333Y-106141190D01*
X130498571Y-106093571D01*
X130593809Y-106093571D01*
X130689047Y-106569761D01*
X130355714Y-105665000D02*
X131022380Y-105665000D01*
X130450952Y-105665000D02*
X130403333Y-105617380D01*
X130355714Y-105522142D01*
X130355714Y-105379285D01*
X130403333Y-105284047D01*
X130498571Y-105236428D01*
X131022380Y-105236428D01*
X130974761Y-104807857D02*
X131022380Y-104712619D01*
X131022380Y-104522142D01*
X130974761Y-104426904D01*
X130879523Y-104379285D01*
X130831904Y-104379285D01*
X130736666Y-104426904D01*
X130689047Y-104522142D01*
X130689047Y-104665000D01*
X130641428Y-104760238D01*
X130546190Y-104807857D01*
X130498571Y-104807857D01*
X130403333Y-104760238D01*
X130355714Y-104665000D01*
X130355714Y-104522142D01*
X130403333Y-104426904D01*
X131022380Y-103807857D02*
X130974761Y-103903095D01*
X130927142Y-103950714D01*
X130831904Y-103998333D01*
X130546190Y-103998333D01*
X130450952Y-103950714D01*
X130403333Y-103903095D01*
X130355714Y-103807857D01*
X130355714Y-103665000D01*
X130403333Y-103569761D01*
X130450952Y-103522142D01*
X130546190Y-103474523D01*
X130831904Y-103474523D01*
X130927142Y-103522142D01*
X130974761Y-103569761D01*
X131022380Y-103665000D01*
X131022380Y-103807857D01*
X131022380Y-103045952D02*
X130355714Y-103045952D01*
X130546190Y-103045952D02*
X130450952Y-102998333D01*
X130403333Y-102950714D01*
X130355714Y-102855476D01*
X130355714Y-102760238D01*
X130022380Y-102236428D02*
X130022380Y-102141190D01*
X130070000Y-102045952D01*
X130117619Y-101998333D01*
X130212857Y-101950714D01*
X130403333Y-101903095D01*
X130641428Y-101903095D01*
X130831904Y-101950714D01*
X130927142Y-101998333D01*
X130974761Y-102045952D01*
X131022380Y-102141190D01*
X131022380Y-102236428D01*
X130974761Y-102331666D01*
X130927142Y-102379285D01*
X130831904Y-102426904D01*
X130641428Y-102474523D01*
X130403333Y-102474523D01*
X130212857Y-102426904D01*
X130117619Y-102379285D01*
X130070000Y-102331666D01*
X130022380Y-102236428D01*
X130355714Y-101045952D02*
X131022380Y-101045952D01*
X129974761Y-101284047D02*
X130689047Y-101522142D01*
X130689047Y-100903095D01*
%TO.C,J14*%
X166720476Y-78192380D02*
X166720476Y-78906666D01*
X166672857Y-79049523D01*
X166577619Y-79144761D01*
X166434761Y-79192380D01*
X166339523Y-79192380D01*
X167720476Y-79192380D02*
X167149047Y-79192380D01*
X167434761Y-79192380D02*
X167434761Y-78192380D01*
X167339523Y-78335238D01*
X167244285Y-78430476D01*
X167149047Y-78478095D01*
X168577619Y-78525714D02*
X168577619Y-79192380D01*
X168339523Y-78144761D02*
X168101428Y-78859047D01*
X168720476Y-78859047D01*
X169460000Y-79322380D02*
X169460000Y-78322380D01*
X169698095Y-78322380D01*
X169840952Y-78370000D01*
X169936190Y-78465238D01*
X169983809Y-78560476D01*
X170031428Y-78750952D01*
X170031428Y-78893809D01*
X169983809Y-79084285D01*
X169936190Y-79179523D01*
X169840952Y-79274761D01*
X169698095Y-79322380D01*
X169460000Y-79322380D01*
X170460000Y-79322380D02*
X170460000Y-78655714D01*
X170460000Y-78846190D02*
X170507619Y-78750952D01*
X170555238Y-78703333D01*
X170650476Y-78655714D01*
X170745714Y-78655714D01*
X171079047Y-79322380D02*
X171079047Y-78655714D01*
X171079047Y-78322380D02*
X171031428Y-78370000D01*
X171079047Y-78417619D01*
X171126666Y-78370000D01*
X171079047Y-78322380D01*
X171079047Y-78417619D01*
X171460000Y-78655714D02*
X171698095Y-79322380D01*
X171936190Y-78655714D01*
X172698095Y-79274761D02*
X172602857Y-79322380D01*
X172412380Y-79322380D01*
X172317142Y-79274761D01*
X172269523Y-79179523D01*
X172269523Y-78798571D01*
X172317142Y-78703333D01*
X172412380Y-78655714D01*
X172602857Y-78655714D01*
X172698095Y-78703333D01*
X172745714Y-78798571D01*
X172745714Y-78893809D01*
X172269523Y-78989047D01*
X173174285Y-79322380D02*
X173174285Y-78655714D01*
X173174285Y-78846190D02*
X173221904Y-78750952D01*
X173269523Y-78703333D01*
X173364761Y-78655714D01*
X173460000Y-78655714D01*
X173793333Y-78941428D02*
X174555238Y-78941428D01*
X175221904Y-78322380D02*
X175317142Y-78322380D01*
X175412380Y-78370000D01*
X175460000Y-78417619D01*
X175507619Y-78512857D01*
X175555238Y-78703333D01*
X175555238Y-78941428D01*
X175507619Y-79131904D01*
X175460000Y-79227142D01*
X175412380Y-79274761D01*
X175317142Y-79322380D01*
X175221904Y-79322380D01*
X175126666Y-79274761D01*
X175079047Y-79227142D01*
X175031428Y-79131904D01*
X174983809Y-78941428D01*
X174983809Y-78703333D01*
X175031428Y-78512857D01*
X175079047Y-78417619D01*
X175126666Y-78370000D01*
X175221904Y-78322380D01*
X176412380Y-78655714D02*
X176412380Y-79322380D01*
X176174285Y-78274761D02*
X175936190Y-78989047D01*
X176555238Y-78989047D01*
%TO.C,J6*%
X65702380Y-71453333D02*
X66416666Y-71453333D01*
X66559523Y-71500952D01*
X66654761Y-71596190D01*
X66702380Y-71739047D01*
X66702380Y-71834285D01*
X65702380Y-70548571D02*
X65702380Y-70739047D01*
X65750000Y-70834285D01*
X65797619Y-70881904D01*
X65940476Y-70977142D01*
X66130952Y-71024761D01*
X66511904Y-71024761D01*
X66607142Y-70977142D01*
X66654761Y-70929523D01*
X66702380Y-70834285D01*
X66702380Y-70643809D01*
X66654761Y-70548571D01*
X66607142Y-70500952D01*
X66511904Y-70453333D01*
X66273809Y-70453333D01*
X66178571Y-70500952D01*
X66130952Y-70548571D01*
X66083333Y-70643809D01*
X66083333Y-70834285D01*
X66130952Y-70929523D01*
X66178571Y-70977142D01*
X66273809Y-71024761D01*
X70160000Y-69032380D02*
X70160000Y-68365714D01*
X70160000Y-68460952D02*
X70207619Y-68413333D01*
X70302857Y-68365714D01*
X70445714Y-68365714D01*
X70540952Y-68413333D01*
X70588571Y-68508571D01*
X70588571Y-69032380D01*
X70588571Y-68508571D02*
X70636190Y-68413333D01*
X70731428Y-68365714D01*
X70874285Y-68365714D01*
X70969523Y-68413333D01*
X71017142Y-68508571D01*
X71017142Y-69032380D01*
X71636190Y-69032380D02*
X71540952Y-68984761D01*
X71493333Y-68937142D01*
X71445714Y-68841904D01*
X71445714Y-68556190D01*
X71493333Y-68460952D01*
X71540952Y-68413333D01*
X71636190Y-68365714D01*
X71779047Y-68365714D01*
X71874285Y-68413333D01*
X71921904Y-68460952D01*
X71969523Y-68556190D01*
X71969523Y-68841904D01*
X71921904Y-68937142D01*
X71874285Y-68984761D01*
X71779047Y-69032380D01*
X71636190Y-69032380D01*
X72255238Y-68365714D02*
X72636190Y-68365714D01*
X72398095Y-68032380D02*
X72398095Y-68889523D01*
X72445714Y-68984761D01*
X72540952Y-69032380D01*
X72636190Y-69032380D01*
X73112380Y-69032380D02*
X73017142Y-68984761D01*
X72969523Y-68937142D01*
X72921904Y-68841904D01*
X72921904Y-68556190D01*
X72969523Y-68460952D01*
X73017142Y-68413333D01*
X73112380Y-68365714D01*
X73255238Y-68365714D01*
X73350476Y-68413333D01*
X73398095Y-68460952D01*
X73445714Y-68556190D01*
X73445714Y-68841904D01*
X73398095Y-68937142D01*
X73350476Y-68984761D01*
X73255238Y-69032380D01*
X73112380Y-69032380D01*
X73874285Y-69032380D02*
X73874285Y-68365714D01*
X73874285Y-68556190D02*
X73921904Y-68460952D01*
X73969523Y-68413333D01*
X74064761Y-68365714D01*
X74160000Y-68365714D01*
X74493333Y-68651428D02*
X75255238Y-68651428D01*
X75921904Y-68032380D02*
X76017142Y-68032380D01*
X76112380Y-68080000D01*
X76160000Y-68127619D01*
X76207619Y-68222857D01*
X76255238Y-68413333D01*
X76255238Y-68651428D01*
X76207619Y-68841904D01*
X76160000Y-68937142D01*
X76112380Y-68984761D01*
X76017142Y-69032380D01*
X75921904Y-69032380D01*
X75826666Y-68984761D01*
X75779047Y-68937142D01*
X75731428Y-68841904D01*
X75683809Y-68651428D01*
X75683809Y-68413333D01*
X75731428Y-68222857D01*
X75779047Y-68127619D01*
X75826666Y-68080000D01*
X75921904Y-68032380D01*
X77207619Y-69032380D02*
X76636190Y-69032380D01*
X76921904Y-69032380D02*
X76921904Y-68032380D01*
X76826666Y-68175238D01*
X76731428Y-68270476D01*
X76636190Y-68318095D01*
%TO.C,J13*%
X154020476Y-78192380D02*
X154020476Y-78906666D01*
X153972857Y-79049523D01*
X153877619Y-79144761D01*
X153734761Y-79192380D01*
X153639523Y-79192380D01*
X155020476Y-79192380D02*
X154449047Y-79192380D01*
X154734761Y-79192380D02*
X154734761Y-78192380D01*
X154639523Y-78335238D01*
X154544285Y-78430476D01*
X154449047Y-78478095D01*
X155353809Y-78192380D02*
X155972857Y-78192380D01*
X155639523Y-78573333D01*
X155782380Y-78573333D01*
X155877619Y-78620952D01*
X155925238Y-78668571D01*
X155972857Y-78763809D01*
X155972857Y-79001904D01*
X155925238Y-79097142D01*
X155877619Y-79144761D01*
X155782380Y-79192380D01*
X155496666Y-79192380D01*
X155401428Y-79144761D01*
X155353809Y-79097142D01*
X156760000Y-79322380D02*
X156760000Y-78322380D01*
X156998095Y-78322380D01*
X157140952Y-78370000D01*
X157236190Y-78465238D01*
X157283809Y-78560476D01*
X157331428Y-78750952D01*
X157331428Y-78893809D01*
X157283809Y-79084285D01*
X157236190Y-79179523D01*
X157140952Y-79274761D01*
X156998095Y-79322380D01*
X156760000Y-79322380D01*
X157760000Y-79322380D02*
X157760000Y-78655714D01*
X157760000Y-78846190D02*
X157807619Y-78750952D01*
X157855238Y-78703333D01*
X157950476Y-78655714D01*
X158045714Y-78655714D01*
X158379047Y-79322380D02*
X158379047Y-78655714D01*
X158379047Y-78322380D02*
X158331428Y-78370000D01*
X158379047Y-78417619D01*
X158426666Y-78370000D01*
X158379047Y-78322380D01*
X158379047Y-78417619D01*
X158760000Y-78655714D02*
X158998095Y-79322380D01*
X159236190Y-78655714D01*
X159998095Y-79274761D02*
X159902857Y-79322380D01*
X159712380Y-79322380D01*
X159617142Y-79274761D01*
X159569523Y-79179523D01*
X159569523Y-78798571D01*
X159617142Y-78703333D01*
X159712380Y-78655714D01*
X159902857Y-78655714D01*
X159998095Y-78703333D01*
X160045714Y-78798571D01*
X160045714Y-78893809D01*
X159569523Y-78989047D01*
X160474285Y-79322380D02*
X160474285Y-78655714D01*
X160474285Y-78846190D02*
X160521904Y-78750952D01*
X160569523Y-78703333D01*
X160664761Y-78655714D01*
X160760000Y-78655714D01*
X161093333Y-78941428D02*
X161855238Y-78941428D01*
X162521904Y-78322380D02*
X162617142Y-78322380D01*
X162712380Y-78370000D01*
X162760000Y-78417619D01*
X162807619Y-78512857D01*
X162855238Y-78703333D01*
X162855238Y-78941428D01*
X162807619Y-79131904D01*
X162760000Y-79227142D01*
X162712380Y-79274761D01*
X162617142Y-79322380D01*
X162521904Y-79322380D01*
X162426666Y-79274761D01*
X162379047Y-79227142D01*
X162331428Y-79131904D01*
X162283809Y-78941428D01*
X162283809Y-78703333D01*
X162331428Y-78512857D01*
X162379047Y-78417619D01*
X162426666Y-78370000D01*
X162521904Y-78322380D01*
X163188571Y-78322380D02*
X163807619Y-78322380D01*
X163474285Y-78703333D01*
X163617142Y-78703333D01*
X163712380Y-78750952D01*
X163760000Y-78798571D01*
X163807619Y-78893809D01*
X163807619Y-79131904D01*
X163760000Y-79227142D01*
X163712380Y-79274761D01*
X163617142Y-79322380D01*
X163331428Y-79322380D01*
X163236190Y-79274761D01*
X163188571Y-79227142D01*
%TO.C,J8*%
X65702380Y-76533333D02*
X66416666Y-76533333D01*
X66559523Y-76580952D01*
X66654761Y-76676190D01*
X66702380Y-76819047D01*
X66702380Y-76914285D01*
X66130952Y-75914285D02*
X66083333Y-76009523D01*
X66035714Y-76057142D01*
X65940476Y-76104761D01*
X65892857Y-76104761D01*
X65797619Y-76057142D01*
X65750000Y-76009523D01*
X65702380Y-75914285D01*
X65702380Y-75723809D01*
X65750000Y-75628571D01*
X65797619Y-75580952D01*
X65892857Y-75533333D01*
X65940476Y-75533333D01*
X66035714Y-75580952D01*
X66083333Y-75628571D01*
X66130952Y-75723809D01*
X66130952Y-75914285D01*
X66178571Y-76009523D01*
X66226190Y-76057142D01*
X66321428Y-76104761D01*
X66511904Y-76104761D01*
X66607142Y-76057142D01*
X66654761Y-76009523D01*
X66702380Y-75914285D01*
X66702380Y-75723809D01*
X66654761Y-75628571D01*
X66607142Y-75580952D01*
X66511904Y-75533333D01*
X66321428Y-75533333D01*
X66226190Y-75580952D01*
X66178571Y-75628571D01*
X66130952Y-75723809D01*
X70160000Y-74112380D02*
X70160000Y-73445714D01*
X70160000Y-73540952D02*
X70207619Y-73493333D01*
X70302857Y-73445714D01*
X70445714Y-73445714D01*
X70540952Y-73493333D01*
X70588571Y-73588571D01*
X70588571Y-74112380D01*
X70588571Y-73588571D02*
X70636190Y-73493333D01*
X70731428Y-73445714D01*
X70874285Y-73445714D01*
X70969523Y-73493333D01*
X71017142Y-73588571D01*
X71017142Y-74112380D01*
X71636190Y-74112380D02*
X71540952Y-74064761D01*
X71493333Y-74017142D01*
X71445714Y-73921904D01*
X71445714Y-73636190D01*
X71493333Y-73540952D01*
X71540952Y-73493333D01*
X71636190Y-73445714D01*
X71779047Y-73445714D01*
X71874285Y-73493333D01*
X71921904Y-73540952D01*
X71969523Y-73636190D01*
X71969523Y-73921904D01*
X71921904Y-74017142D01*
X71874285Y-74064761D01*
X71779047Y-74112380D01*
X71636190Y-74112380D01*
X72255238Y-73445714D02*
X72636190Y-73445714D01*
X72398095Y-73112380D02*
X72398095Y-73969523D01*
X72445714Y-74064761D01*
X72540952Y-74112380D01*
X72636190Y-74112380D01*
X73112380Y-74112380D02*
X73017142Y-74064761D01*
X72969523Y-74017142D01*
X72921904Y-73921904D01*
X72921904Y-73636190D01*
X72969523Y-73540952D01*
X73017142Y-73493333D01*
X73112380Y-73445714D01*
X73255238Y-73445714D01*
X73350476Y-73493333D01*
X73398095Y-73540952D01*
X73445714Y-73636190D01*
X73445714Y-73921904D01*
X73398095Y-74017142D01*
X73350476Y-74064761D01*
X73255238Y-74112380D01*
X73112380Y-74112380D01*
X73874285Y-74112380D02*
X73874285Y-73445714D01*
X73874285Y-73636190D02*
X73921904Y-73540952D01*
X73969523Y-73493333D01*
X74064761Y-73445714D01*
X74160000Y-73445714D01*
X74493333Y-73731428D02*
X75255238Y-73731428D01*
X75921904Y-73112380D02*
X76017142Y-73112380D01*
X76112380Y-73160000D01*
X76160000Y-73207619D01*
X76207619Y-73302857D01*
X76255238Y-73493333D01*
X76255238Y-73731428D01*
X76207619Y-73921904D01*
X76160000Y-74017142D01*
X76112380Y-74064761D01*
X76017142Y-74112380D01*
X75921904Y-74112380D01*
X75826666Y-74064761D01*
X75779047Y-74017142D01*
X75731428Y-73921904D01*
X75683809Y-73731428D01*
X75683809Y-73493333D01*
X75731428Y-73302857D01*
X75779047Y-73207619D01*
X75826666Y-73160000D01*
X75921904Y-73112380D01*
X76588571Y-73112380D02*
X77207619Y-73112380D01*
X76874285Y-73493333D01*
X77017142Y-73493333D01*
X77112380Y-73540952D01*
X77160000Y-73588571D01*
X77207619Y-73683809D01*
X77207619Y-73921904D01*
X77160000Y-74017142D01*
X77112380Y-74064761D01*
X77017142Y-74112380D01*
X76731428Y-74112380D01*
X76636190Y-74064761D01*
X76588571Y-74017142D01*
%TO.C,P1*%
X148590000Y-111125000D02*
X148590000Y-108585000D01*
X146050000Y-65405000D02*
X146050000Y-108585000D01*
X151130000Y-111125000D02*
X151130000Y-65405000D01*
X145770000Y-109855000D02*
X145770000Y-111405000D01*
X145770000Y-111405000D02*
X147320000Y-111405000D01*
X151130000Y-65405000D02*
X146050000Y-65405000D01*
X148590000Y-108585000D02*
X146050000Y-108585000D01*
X151130000Y-111125000D02*
X148590000Y-111125000D01*
%TO.C,P2*%
X100330000Y-113665000D02*
X82550000Y-113665000D01*
X100330000Y-116205000D02*
X100330000Y-113665000D01*
X82550000Y-116205000D02*
X100330000Y-116205000D01*
X82550000Y-116205000D02*
X82550000Y-113665000D01*
X81280000Y-113385000D02*
X79730000Y-113385000D01*
X79730000Y-116485000D02*
X81280000Y-116485000D01*
X79730000Y-113385000D02*
X79730000Y-116485000D01*
%TO.C,P3*%
X102590000Y-113385000D02*
X102590000Y-116485000D01*
X104140000Y-113385000D02*
X102590000Y-113385000D01*
X105410000Y-116205000D02*
X123190000Y-116205000D01*
X123190000Y-113665000D02*
X105410000Y-113665000D01*
X123190000Y-116205000D02*
X123190000Y-113665000D01*
X102590000Y-116485000D02*
X104140000Y-116485000D01*
X105410000Y-116205000D02*
X105410000Y-113665000D01*
%TO.C,P4*%
X125450000Y-116485000D02*
X127000000Y-116485000D01*
X128270000Y-116205000D02*
X146050000Y-116205000D01*
X125450000Y-113385000D02*
X125450000Y-116485000D01*
X128270000Y-116205000D02*
X128270000Y-113665000D01*
X146050000Y-113665000D02*
X128270000Y-113665000D01*
X146050000Y-116205000D02*
X146050000Y-113665000D01*
X127000000Y-113385000D02*
X125450000Y-113385000D01*
%TO.C,P5*%
X73406000Y-67945000D02*
X96266000Y-67945000D01*
X70586000Y-68225000D02*
X72136000Y-68225000D01*
X73406000Y-67945000D02*
X73406000Y-65405000D01*
X72136000Y-65125000D02*
X70586000Y-65125000D01*
X96266000Y-65405000D02*
X73406000Y-65405000D01*
X96266000Y-67945000D02*
X96266000Y-65405000D01*
X70586000Y-65125000D02*
X70586000Y-68225000D01*
%TO.C,P6*%
X97510000Y-65125000D02*
X97510000Y-68225000D01*
X118110000Y-65405000D02*
X100330000Y-65405000D01*
X118110000Y-67945000D02*
X118110000Y-65405000D01*
X100330000Y-67945000D02*
X118110000Y-67945000D01*
X99060000Y-65125000D02*
X97510000Y-65125000D01*
X97510000Y-68225000D02*
X99060000Y-68225000D01*
X100330000Y-67945000D02*
X100330000Y-65405000D01*
%TO.C,P7*%
X140970000Y-67945000D02*
X140970000Y-65405000D01*
X123190000Y-67945000D02*
X140970000Y-67945000D01*
X140970000Y-65405000D02*
X123190000Y-65405000D01*
X123190000Y-67945000D02*
X123190000Y-65405000D01*
X120370000Y-65125000D02*
X120370000Y-68225000D01*
X120370000Y-68225000D02*
X121920000Y-68225000D01*
X121920000Y-65125000D02*
X120370000Y-65125000D01*
%TO.C,P8*%
X69596000Y-114935000D02*
G75*
G03*
X69596000Y-114935000I-2286000J0D01*
G01*
D14*
%TO.C,J17*%
X65420000Y-90270000D02*
X63420000Y-90270000D01*
X63420000Y-102770000D02*
X65420000Y-102770000D01*
X51920000Y-102770000D02*
X59920000Y-102770000D01*
X51420000Y-103770000D02*
X51920000Y-103770000D01*
X51920000Y-103770000D02*
X51920000Y-102770000D01*
X59920000Y-90270000D02*
X51920000Y-90270000D01*
X65420000Y-102770000D02*
X65420000Y-90270000D01*
X51920000Y-89270000D02*
X51420000Y-89270000D01*
X51920000Y-90270000D02*
X51920000Y-89270000D01*
X51420000Y-89270000D02*
X51420000Y-103770000D01*
X65670000Y-92520000D02*
X65670000Y-93520000D01*
%TO.C,J18*%
X178520000Y-99537500D02*
X178520000Y-96937500D01*
X178520000Y-93037500D02*
X178520000Y-90337500D01*
X184420000Y-90337500D02*
X193220000Y-90337500D01*
X193220000Y-99537500D02*
X178520000Y-99537500D01*
X193220000Y-90337500D02*
X193220000Y-99537500D01*
X178520000Y-90337500D02*
X180420000Y-90337500D01*
X179370000Y-99737500D02*
X178320000Y-99737500D01*
X178320000Y-98687500D02*
X178320000Y-99737500D01*
%TO.C,J11*%
X167060000Y-112960000D02*
X167060000Y-118060000D01*
X177910000Y-118060000D02*
X177910000Y-105460000D01*
X167060000Y-106160000D02*
X167060000Y-108060000D01*
X167560000Y-113260000D02*
X167060000Y-112960000D01*
X167060000Y-108110000D02*
X167560000Y-107860000D01*
X167560000Y-106410000D02*
X167060000Y-106160000D01*
X167560000Y-107860000D02*
X167560000Y-113260000D01*
X167060000Y-118060000D02*
X177910000Y-118060000D01*
X177910000Y-105460000D02*
X167560000Y-105460000D01*
X167060000Y-108060000D02*
X167060000Y-108110000D01*
X167560000Y-105460000D02*
X167560000Y-106410000D01*
%TO.C,J9*%
X88900000Y-79950000D02*
X101660000Y-79950000D01*
X101660000Y-82610000D02*
X101660000Y-79950000D01*
X88900000Y-82610000D02*
X101660000Y-82610000D01*
X86300000Y-82610000D02*
X86300000Y-81280000D01*
X87630000Y-82610000D02*
X86300000Y-82610000D01*
X88900000Y-82610000D02*
X88900000Y-79950000D01*
%TO.C,J10*%
X69850000Y-79950000D02*
X82610000Y-79950000D01*
X67250000Y-82610000D02*
X67250000Y-81280000D01*
X82610000Y-82610000D02*
X82610000Y-79950000D01*
X68580000Y-82610000D02*
X67250000Y-82610000D01*
X69850000Y-82610000D02*
X69850000Y-79950000D01*
X69850000Y-82610000D02*
X82610000Y-82610000D01*
%TO.C,J2*%
X139690000Y-87595000D02*
X132010000Y-87595000D01*
X142290000Y-90255000D02*
X140960000Y-90255000D01*
X142290000Y-88925000D02*
X142290000Y-90255000D01*
X132010000Y-87595000D02*
X132010000Y-90255000D01*
X139690000Y-87595000D02*
X139690000Y-90255000D01*
X139690000Y-90255000D02*
X132010000Y-90255000D01*
%TO.C,J5*%
X134630000Y-72305000D02*
X142310000Y-72305000D01*
X142310000Y-74965000D02*
X142310000Y-72305000D01*
X132030000Y-72305000D02*
X133360000Y-72305000D01*
X132030000Y-73635000D02*
X132030000Y-72305000D01*
X134630000Y-74965000D02*
X134630000Y-72305000D01*
X134630000Y-74965000D02*
X142310000Y-74965000D01*
%TO.C,J15*%
X154860000Y-106410000D02*
X154360000Y-106160000D01*
X154360000Y-118060000D02*
X165210000Y-118060000D01*
X154360000Y-108110000D02*
X154860000Y-107860000D01*
X154360000Y-108060000D02*
X154360000Y-108110000D01*
X154860000Y-105460000D02*
X154860000Y-106410000D01*
X165210000Y-105460000D02*
X154860000Y-105460000D01*
X154860000Y-107860000D02*
X154860000Y-113260000D01*
X154360000Y-112960000D02*
X154360000Y-118060000D01*
X154860000Y-113260000D02*
X154360000Y-112960000D01*
X154360000Y-106160000D02*
X154360000Y-108060000D01*
X165210000Y-118060000D02*
X165210000Y-105460000D01*
%TO.C,J1*%
X139690000Y-79975000D02*
X132010000Y-79975000D01*
X139690000Y-82635000D02*
X132010000Y-82635000D01*
X142290000Y-82635000D02*
X140960000Y-82635000D01*
X142290000Y-81305000D02*
X142290000Y-82635000D01*
X132010000Y-79975000D02*
X132010000Y-82635000D01*
X139690000Y-79975000D02*
X139690000Y-82635000D01*
%TO.C,J7*%
X87630000Y-77530000D02*
X86300000Y-77530000D01*
X88900000Y-77530000D02*
X101660000Y-77530000D01*
X88900000Y-77530000D02*
X88900000Y-74870000D01*
X86300000Y-77530000D02*
X86300000Y-76200000D01*
X88900000Y-74870000D02*
X101660000Y-74870000D01*
X101660000Y-77530000D02*
X101660000Y-74870000D01*
%TO.C,J12*%
X179760000Y-108060000D02*
X179760000Y-108110000D01*
X179760000Y-108110000D02*
X180260000Y-107860000D01*
X190610000Y-105460000D02*
X180260000Y-105460000D01*
X180260000Y-105460000D02*
X180260000Y-106410000D01*
X180260000Y-107860000D02*
X180260000Y-113260000D01*
X180260000Y-106410000D02*
X179760000Y-106160000D01*
X179760000Y-112960000D02*
X179760000Y-118060000D01*
X180260000Y-113260000D02*
X179760000Y-112960000D01*
X190610000Y-118060000D02*
X190610000Y-105460000D01*
X179760000Y-118060000D02*
X190610000Y-118060000D01*
X179760000Y-106160000D02*
X179760000Y-108060000D01*
%TO.C,J3*%
X139690000Y-95215000D02*
X139690000Y-97875000D01*
X139690000Y-97875000D02*
X132010000Y-97875000D01*
X132010000Y-95215000D02*
X132010000Y-97875000D01*
X139690000Y-95215000D02*
X132010000Y-95215000D01*
X142290000Y-97875000D02*
X140960000Y-97875000D01*
X142290000Y-96545000D02*
X142290000Y-97875000D01*
%TO.C,J16*%
X192110000Y-81200000D02*
X192110000Y-68350000D01*
X189510000Y-84050000D02*
X192110000Y-81200000D01*
X183810000Y-81200000D02*
X186360000Y-84050000D01*
X186360000Y-84050000D02*
X189510000Y-84050000D01*
X192110000Y-68350000D02*
X183810000Y-68350000D01*
X183810000Y-68350000D02*
X183810000Y-81200000D01*
%TO.C,J21*%
X110540000Y-71010000D02*
X110540000Y-81360000D01*
X112940000Y-81360000D02*
X118340000Y-81360000D01*
X123140000Y-81860000D02*
X123140000Y-71010000D01*
X111240000Y-81860000D02*
X113140000Y-81860000D01*
X123140000Y-71010000D02*
X110540000Y-71010000D01*
X110540000Y-81360000D02*
X111490000Y-81360000D01*
X113190000Y-81860000D02*
X112940000Y-81360000D01*
X113140000Y-81860000D02*
X113190000Y-81860000D01*
X118340000Y-81360000D02*
X118040000Y-81860000D01*
X118040000Y-81860000D02*
X123140000Y-81860000D01*
X111490000Y-81360000D02*
X111240000Y-81860000D01*
%TO.C,J4*%
X132010000Y-102835000D02*
X132010000Y-105495000D01*
X139690000Y-102835000D02*
X132010000Y-102835000D01*
X139690000Y-102835000D02*
X139690000Y-105495000D01*
X142290000Y-104165000D02*
X142290000Y-105495000D01*
X139690000Y-105495000D02*
X132010000Y-105495000D01*
X142290000Y-105495000D02*
X140960000Y-105495000D01*
%TO.C,J14*%
X167530000Y-64820000D02*
X167530000Y-77420000D01*
X178380000Y-74820000D02*
X178380000Y-74770000D01*
X167530000Y-77420000D02*
X177880000Y-77420000D01*
X177880000Y-69620000D02*
X178380000Y-69920000D01*
X177880000Y-76470000D02*
X178380000Y-76720000D01*
X178380000Y-64820000D02*
X167530000Y-64820000D01*
X177880000Y-75020000D02*
X177880000Y-69620000D01*
X177880000Y-77420000D02*
X177880000Y-76470000D01*
X178380000Y-76720000D02*
X178380000Y-74820000D01*
X178380000Y-74770000D02*
X177880000Y-75020000D01*
X178380000Y-69920000D02*
X178380000Y-64820000D01*
%TO.C,J6*%
X69850000Y-72450000D02*
X82610000Y-72450000D01*
X68580000Y-72450000D02*
X67250000Y-72450000D01*
X69850000Y-69790000D02*
X82610000Y-69790000D01*
X82610000Y-72450000D02*
X82610000Y-69790000D01*
X69850000Y-72450000D02*
X69850000Y-69790000D01*
X67250000Y-72450000D02*
X67250000Y-71120000D01*
%TO.C,J13*%
X165180000Y-77420000D02*
X165180000Y-76470000D01*
X165680000Y-74770000D02*
X165180000Y-75020000D01*
X154830000Y-64820000D02*
X154830000Y-77420000D01*
X165180000Y-69620000D02*
X165680000Y-69920000D01*
X165680000Y-69920000D02*
X165680000Y-64820000D01*
X165180000Y-76470000D02*
X165680000Y-76720000D01*
X165680000Y-76720000D02*
X165680000Y-74820000D01*
X165680000Y-74820000D02*
X165680000Y-74770000D01*
X165180000Y-75020000D02*
X165180000Y-69620000D01*
X154830000Y-77420000D02*
X165180000Y-77420000D01*
X165680000Y-64820000D02*
X154830000Y-64820000D01*
%TO.C,J8*%
X69850000Y-77530000D02*
X82610000Y-77530000D01*
X68580000Y-77530000D02*
X67250000Y-77530000D01*
X69850000Y-77530000D02*
X69850000Y-74870000D01*
X67250000Y-77530000D02*
X67250000Y-76200000D01*
X82610000Y-77530000D02*
X82610000Y-74870000D01*
X69850000Y-74870000D02*
X82610000Y-74870000D01*
%TD*%
D15*
%TO.C,P1*%
X147320000Y-109855000D03*
X149860000Y-109855000D03*
D16*
X147320000Y-107315000D03*
X149860000Y-107315000D03*
X147320000Y-104775000D03*
X149860000Y-104775000D03*
X147320000Y-102235000D03*
X149860000Y-102235000D03*
X147320000Y-99695000D03*
X149860000Y-99695000D03*
X147320000Y-97155000D03*
X149860000Y-97155000D03*
X147320000Y-94615000D03*
X149860000Y-94615000D03*
X147320000Y-92075000D03*
X149860000Y-92075000D03*
X147320000Y-89535000D03*
X149860000Y-89535000D03*
X147320000Y-86995000D03*
X149860000Y-86995000D03*
X147320000Y-84455000D03*
X149860000Y-84455000D03*
X147320000Y-81915000D03*
X149860000Y-81915000D03*
X147320000Y-79375000D03*
X149860000Y-79375000D03*
X147320000Y-76835000D03*
X149860000Y-76835000D03*
X147320000Y-74295000D03*
X149860000Y-74295000D03*
X147320000Y-71755000D03*
X149860000Y-71755000D03*
X147320000Y-69215000D03*
X149860000Y-69215000D03*
X147320000Y-66675000D03*
X149860000Y-66675000D03*
%TD*%
D17*
%TO.C,P2*%
X81280000Y-114935000D03*
X83820000Y-114935000D03*
X86360000Y-114935000D03*
X88900000Y-114935000D03*
X91440000Y-114935000D03*
D18*
X93980000Y-114935000D03*
X96520000Y-114935000D03*
D17*
X99060000Y-114935000D03*
%TD*%
%TO.C,P3*%
X104140000Y-114935000D03*
X106680000Y-114935000D03*
X109220000Y-114935000D03*
X111760000Y-114935000D03*
X114300000Y-114935000D03*
X116840000Y-114935000D03*
X119380000Y-114935000D03*
X121920000Y-114935000D03*
%TD*%
%TO.C,P4*%
X127000000Y-114935000D03*
X129540000Y-114935000D03*
X132080000Y-114935000D03*
X134620000Y-114935000D03*
X137160000Y-114935000D03*
X139700000Y-114935000D03*
X142240000Y-114935000D03*
X144780000Y-114935000D03*
%TD*%
%TO.C,P5*%
X72136000Y-66675000D03*
X74676000Y-66675000D03*
X77216000Y-66675000D03*
D18*
X79756000Y-66675000D03*
D17*
X82296000Y-66675000D03*
X84836000Y-66675000D03*
X87376000Y-66675000D03*
X89916000Y-66675000D03*
X92456000Y-66675000D03*
X94996000Y-66675000D03*
%TD*%
%TO.C,P6*%
X99060000Y-66675000D03*
X101600000Y-66675000D03*
X104140000Y-66675000D03*
X106680000Y-66675000D03*
X109220000Y-66675000D03*
X111760000Y-66675000D03*
X114300000Y-66675000D03*
X116840000Y-66675000D03*
%TD*%
%TO.C,P7*%
X121920000Y-66675000D03*
X124460000Y-66675000D03*
X127000000Y-66675000D03*
X129540000Y-66675000D03*
X132080000Y-66675000D03*
X134620000Y-66675000D03*
X137160000Y-66675000D03*
X139700000Y-66675000D03*
%TD*%
D19*
%TO.C,P8*%
X67310000Y-114935000D03*
%TD*%
M02*
